<?xml version="1.0" encoding="UTF-8"?>
<svg id="Ebene_2" data-name="Ebene 2" xmlns="http://www.w3.org/2000/svg" viewBox="0 0 1143.89 1325.72">
  <defs>
    <style>
      .cls-1 {
        fill: #00acee;
      }

      .cls-2 {
        fill: #db7b1b;
      }

      .cls-3 {
        fill: #000b16;
      }

      .cls-4 {
        fill: #1394bc;
      }

      .cls-5 {
        fill: #fff;
      }
    </style>
  </defs>
  <g id="Ebene_1-2" data-name="Ebene 1">
    <g>
      <g>
        <path class="cls-5" d="M945.56,785.73c-3.09,14.78-2,30.09,3.16,44.25,2.81,7.69,6.14,14.95,9.37,21.98,9.18,19.96,17.85,38.82,15.95,69.59-2.37,38.32-20.69,87.98-56,151.84-44.09,79.7-114.05,138.58-207.96,175.01-69.43,26.93-127.77,31.65-138.05,32.3-17.72-1.1-241.84-18.66-346.18-207.31-35.32-63.86-53.64-113.52-56-151.84-1.9-30.77,6.77-49.63,15.94-69.59,3.23-7.03,6.57-14.29,9.37-21.98,5.17-14.17,6.26-29.47,3.17-44.25l-.07-.32L45.71,148.6c-1.91-9.53.03-19.27,5.34-26.77,4.08-5.75,9.68-9.36,15.77-10.16l1.81-.24,1.74-.52c2.19-.66,221.9-65.91,498.5-65.91,144.28,0,273.78,17.91,357,32.94,90.36,16.32,147.25,32.85,147.8,33.02l1.67.49,1.73.22c6.09.8,11.69,4.41,15.77,10.16,5.31,7.5,7.25,17.24,5.33,26.77l-152.47,636.49-.14.64Z"/>
        <g>
          <path class="cls-3" d="M1129.54,95.8c-11.02-15.55-26.86-25.6-44.75-28.47-9.94-2.84-64.91-18.11-150.17-33.54C849.41,18.38,716.79,0,568.87,0S289.95,18.38,206.13,33.8c-83.59,15.38-137.13,30.61-147.12,33.54-17.86,2.89-33.66,12.94-44.67,28.46C1.76,113.55-2.84,136.26,1.72,158.1l.07.32,152.55,636.8c1.28,6.39.77,13.25-1.46,19.35-2.17,5.97-4.99,12.1-7.97,18.59-10.06,21.88-22.57,49.1-19.98,91.17,2.79,45.12,22.92,101.01,61.54,170.84,27.08,48.96,63.5,91.47,108.23,126.34,35.89,27.99,77.21,51.14,122.81,68.83,78.9,30.61,145.57,34.95,152.91,35.34l5.23-.24c-1.43.24-2.64.28-3.39.28h.61l.62-.03c7.36-.4,74.16-4.81,152.86-35.34,45.61-17.69,86.93-40.84,122.82-68.82,44.74-34.88,81.16-77.4,108.24-126.36,38.63-69.83,58.75-125.71,61.54-170.84,2.6-42.07-9.91-69.29-19.97-91.16-2.98-6.5-5.8-12.63-7.98-18.6-2.22-6.1-2.73-12.96-1.45-19.35l152.47-636.49.14-.63c4.57-21.84-.03-44.55-12.62-62.3ZM1098.17,148.6l-152.47,636.49-.14.64c-3.09,14.78-2,30.09,3.16,44.25,2.81,7.69,6.14,14.95,9.37,21.98,9.18,19.96,17.85,38.82,15.95,69.59-2.37,38.32-20.69,87.98-56,151.84-44.09,79.7-114.05,138.58-207.96,175.01-69.43,26.93-127.77,31.65-138.05,32.3-17.72-1.1-241.84-18.66-346.18-207.31-35.32-63.86-53.64-113.52-56-151.84-1.9-30.77,6.77-49.63,15.94-69.59,3.23-7.03,6.57-14.29,9.37-21.98,5.17-14.17,6.26-29.47,3.17-44.25l-.07-.32L45.71,148.6c-1.91-9.53.03-19.27,5.34-26.77,4.08-5.75,9.68-9.36,15.77-10.16l1.81-.24,1.74-.52c2.19-.66,221.9-65.91,498.5-65.91,144.28,0,273.78,17.91,357,32.94,90.36,16.32,147.25,32.85,147.8,33.02l1.67.49,1.73.22c6.09.8,11.69,4.41,15.77,10.16,5.31,7.5,7.25,17.24,5.33,26.77Z"/>
          <path class="cls-5" d="M945.56,785.73c-3.09,14.78-2,30.09,3.16,44.25,2.81,7.69,6.14,14.95,9.37,21.98,9.18,19.96,17.85,38.82,15.95,69.59-2.37,38.32-20.69,87.98-56,151.84-44.09,79.7-114.05,138.58-207.96,175.01-69.43,26.93-127.77,31.65-138.05,32.3-17.72-1.1-241.84-18.66-346.18-207.31-35.32-63.86-53.64-113.52-56-151.84-1.9-30.77,6.77-49.63,15.94-69.59,3.23-7.03,6.57-14.29,9.37-21.98,5.17-14.17,6.26-29.47,3.17-44.25l-.07-.32L45.71,148.6c-1.91-9.53.03-19.27,5.34-26.77,4.08-5.75,9.68-9.36,15.77-10.16l1.81-.24,1.74-.52c2.19-.66,221.9-65.91,498.5-65.91,144.28,0,273.78,17.91,357,32.94,90.36,16.32,147.25,32.85,147.8,33.02l1.67.49,1.73.22c6.09.8,11.69,4.41,15.77,10.16,5.31,7.5,7.25,17.24,5.33,26.77l-152.47,636.49-.14.64Z"/>
        </g>
      </g>
      <path class="cls-1" d="M974.07,198.61v60.26c0,7.93-8.1,13.27-15.38,10.15-47.43-20.36-198.93-78.78-375.4-78.78-178.94,0-347.78,60.07-397.99,79.61-7.23,2.82-15.03-2.53-15.03-10.29v-60.53c0-4.28,2.46-8.17,6.33-9.99,32.57-15.3,188.24-82.61,406.69-82.61s355.65,66.82,384.94,82.44c3.6,1.92,5.85,5.66,5.85,9.74Z"/>
      <g>
        <g>
          <path class="cls-1" d="M789.16,1135.21c24.12-39.33,37.18-84.93,37.18-132.74,0-36.82-7.69-72.31-22.86-105.49-.51-1.84-1.08-3.56-1.69-5.12l-.13-.32-.15-.31c-18.44-37.86-46.31-70.7-80.95-95.51,49.8-54.14,81.46-109.89,96.52-169.97h120.52c-3.8,49.42-18.34,95.25-44.33,139.84-.66.98-3.49,5.22-6.84,11.25-6.19,9.82-13.02,19.68-20.31,29.32l-3.7,4.89,59.66,86.78c3.71,76.45-69.66,175.76-132.92,237.4Z"/>
          <path class="cls-4" d="M928.29,634.23c-4.71,44.56-18.6,86.21-42.22,126.81-.97,1.45-3.71,5.62-6.96,11.43-6.03,9.55-12.68,19.15-19.77,28.53l-7.4,9.78,6.95,10.11,54.79,79.69c.59,22.96-6.14,49.72-20.05,79.66-13.1,28.19-32.79,59.2-56.94,89.68-5.48,6.91-11.06,13.64-16.69,20.16,9.73-27.69,14.84-57.22,14.84-87.61,0-37.83-7.86-74.3-23.36-108.43-.54-1.87-1.14-3.64-1.78-5.28l-.25-.64-.3-.62c-17.69-36.31-43.75-68.15-76.01-93.02,45.43-51.09,75.19-103.77,90.5-160.24h104.64M946.65,617.23h-136.28c-15.7,68.48-52.65,127.26-102.77,179.88,36.71,24.21,66.87,58,86.26,97.83.6,1.53,1.13,3.18,1.6,4.95,14.37,31.21,22.37,65.96,22.37,102.58,0,79.62-37.87,150.41-96.56,195.33,56.47-24.07,217.11-187.83,209.14-302.86l-57.53-83.68c7.42-9.81,14.38-19.84,20.84-30.11,3.39-6.11,6.24-10.34,6.67-10.96.04-.06.06-.08.06-.08,26.72-45.77,43.33-96.19,46.19-152.87h0Z"/>
        </g>
        <g>
          <path class="cls-1" d="M358.6,1134.99c-63.26-61.64-136.63-160.95-132.92-237.4l59.66-86.78-3.7-4.89c-7.29-9.64-14.12-19.51-20.31-29.32-3.34-6-6.17-10.25-6.84-11.24-25.99-44.59-40.53-90.43-44.33-139.84h120.52c15.06,60.09,46.72,115.84,96.51,169.97-34.64,24.81-62.51,57.65-80.95,95.51l-.15.31-.12.32c-.61,1.57-1.18,3.29-1.7,5.12-15.17,33.18-22.86,68.67-22.86,105.49,0,47.82,13.06,93.42,37.18,132.74Z"/>
          <path class="cls-4" d="M324.11,634.01c15.31,56.46,45.07,109.15,90.5,160.24-32.26,24.88-58.32,56.71-76.01,93.02l-.3.62-.25.64c-.64,1.64-1.24,3.41-1.78,5.27-15.5,34.13-23.36,70.61-23.36,108.44,0,30.39,5.11,59.93,14.84,87.61-5.63-6.52-11.21-13.25-16.69-20.16-24.15-30.48-43.84-61.49-56.94-89.68-13.91-29.93-20.64-56.7-20.05-79.66l54.79-79.7,6.95-10.11-7.4-9.78c-7.1-9.38-13.75-18.98-19.77-28.53-3.25-5.82-5.98-9.99-6.96-11.43-23.62-40.6-37.51-82.26-42.22-126.81h104.64M337.38,617.01h-136.27c2.86,56.68,19.47,107.09,46.19,152.87,0,0,.01.03.06.08.43.63,3.28,4.85,6.67,10.96,6.46,10.27,13.42,20.3,20.84,30.11l-57.53,83.68c-7.96,115.03,152.67,278.79,209.14,302.86-58.7-44.92-96.56-115.71-96.56-195.33,0-36.61,8-71.37,22.37-102.58.47-1.76,1-3.42,1.6-4.95,19.4-39.82,49.55-73.62,86.26-97.83-50.12-52.62-87.07-111.4-102.77-179.88h0Z"/>
        </g>
      </g>
      <g>
        <g id="object">
          <g>
            <g>
              <path d="M608.28,877.02c-1,.28-1.88.51-2.61.71-1.47.39-2.93.75-4.39,1.06-15.94-39.51-34.43-65-53.44-73.16-1.33-.57-2.7-1.1-4.07-1.58,2.33-.38,4.68-.71,7.02-.97,2.11-.25,4.24-.46,6.36-.63,18.69,11.38,36.05,36.75,51.14,74.58Z"/>
              <path d="M534.81,789.88c-.9.18-1.79.36-2.7.56l.22-1.07,2.47.51Z"/>
              <path d="M612.31,875.81h0c-1.49.49-2.85.88-4.03,1.21-1,.28-1.88.51-2.61.71-1.47.39-2.93.75-4.39,1.06-1.4.31-2.79.58-4.17.81-15.37-37.78-33.36-62.6-50.93-70.13-3.65-1.57-7.48-2.82-11.37-3.74.29-.07.58-.14.88-.19,2.67-.56,5.36-1.06,8.07-1.49,2.33-.38,4.68-.71,7.02-.97,2.11-.25,4.24-.46,6.36-.63,2.28-.19,4.57-.32,6.86-.42,17.73,12.96,33.93,37.7,48.3,73.79Z"/>
            </g>
            <path d="M413.49,870.88l.56,1.01c.42-.68.86-1.35,1.29-2.01l-1.85,1Z"/>
            <g>
              <path d="M757.62,972.72l-.06-3.36c-.31-15.95-2.61-31.58-6.81-46.61-.12-.47-.25-.94-.4-1.42-2.08-7.3-4.61-14.45-7.59-21.41-9.25-21.73-22.68-41.7-39.84-58.85-35.24-35.25-82.11-54.67-131.97-54.67-12.27,0-24.36,1.18-36.13,3.47h-.01c-.9.18-1.79.36-2.7.56-35.05,7.36-67.23,24.72-93.14,50.64-8.89,8.91-16.79,18.55-23.62,28.79h-.01c-.43.68-.88,1.35-1.29,2.03-19.37,29.88-29.74,64.71-29.74,101.16,0,7.95.51,15.99,1.5,23.89l.6,4.72s.04-.01.14-.04l4.47-1.18c2.31-.6,4.61-1.2,6.95-1.79l3.56-.9-.04-.32-.42-3.34c-.85-6.92-1.29-13.99-1.29-21.04,0-32.52,9.19-64.13,26.58-91.5h0c1.95-1,3.93-1.95,5.95-2.79,29.96-12.67,56.78-4.13,85.18,4.93,19.77,6.31,40.21,12.83,62.86,12.83h.01c7.64,0,15.02-.74,22.37-2.21,2.57,7.14,5.03,14.6,7.36,22.23-31.65,7.3-62.41,14.56-110.1,29.83l-2.7.9c-.42.14-.86.28-1.32.44l-.19.06h0c-6.64,2.29-17.94,6.63-29.03,11.56-12.23,5.45-30.2,14.26-46.38,25.42l-18.09,12.45-.43.31,21.86-5.27c7.1-1.71,14.35-3.4,21.58-5.03l.6-.14.19-.11.33-.18c28.42-15.95,57.99-25.58,58.31-25.68,47.25-15.13,77.89-22.34,109.5-29.61,1.65,6.49,3.81,15.54,5.99,26.43.01.08.03.17.04.24.44,2.24.89,4.54,1.33,6.91l.06.33c4.39-.18,8.82-.33,13.28-.46.79-.03,1.58-.04,2.36-.06l-.51-2.71c-.4-2.08-.78-4.1-1.19-6.2-.03-.17-.07-.33-.11-.6-1.85-9.3-3.9-18.41-6.11-27.15,9.52-1.75,27.65-4.66,51.4-6.34,14.37-1.01,29.79-1.45,46.66,5.16,3.31,1.29,6.56,2.79,9.62,4.49,3,12.01,4.7,24.41,5.03,36.95l.04,1.45.06,1.96,3.36.58c2.47.43,4.95.81,7.34,1.11l4.78.6-.03-1.46ZM612.31,875.81h0c-1.49.49-2.85.88-4.03,1.21-1,.28-1.88.51-2.61.71-1.47.39-2.93.75-4.39,1.06-1.4.31-2.79.58-4.17.81-27.03,4.63-51.34-3.14-74.95-10.66-24.87-7.93-50.47-16.09-78.73-9.91,24.09-26.96,56.07-45.69,91.38-53.3h.01c.29-.07.58-.14.88-.19,2.67-.56,5.36-1.06,8.07-1.49,2.33-.38,4.68-.71,7.02-.97,2.11-.25,4.24-.46,6.36-.63,2.28-.19,4.57-.32,6.86-.42,2.32-.1,4.64-.14,6.95-.14,32,0,63.1,8.88,90.18,25.73-1.99,7.68-5.18,14.69-9.5,20.9-11.52,16.55-28.79,23.93-39.32,27.29ZM679.66,906.47c-25.37,1.78-44.69,4.95-54.4,6.8,0-.04-.01-.07-.03-.11-2.4-7.95-4.92-15.6-7.48-22.82,12.42-4.04,32.61-12.91,46.58-32.96,4.35-6.24,7.77-13.1,10.21-20.5,25.23,19.26,44.87,45.45,56.22,74.9-18.93-6.88-35.61-6.42-51.11-5.31Z"/>
              <path class="cls-2" d="M597.11,879.59c-27.03,4.63-51.34-3.14-74.95-10.66-24.87-7.93-50.47-16.09-78.73-9.91,24.09-26.96,56.07-45.69,91.38-53.3h.01c3.89.92,7.71,2.17,11.37,3.74,17.56,7.53,35.56,32.35,50.93,70.13Z"/>
              <path class="cls-2" d="M661.14,827.62c-1.99,7.68-5.18,14.69-9.5,20.9-11.52,16.55-28.79,23.93-39.32,27.29-14.37-36.09-30.57-60.82-48.3-73.79,2.32-.1,4.64-.14,6.95-.14,32,0,63.1,8.88,90.18,25.73Z"/>
              <path class="cls-2" d="M730.77,911.78c-18.93-6.88-35.61-6.42-51.11-5.31-25.37,1.78-44.69,4.95-54.4,6.8,0-.04-.01-.07-.03-.11-2.4-7.95-4.92-15.6-7.48-22.82,12.42-4.04,32.61-12.91,46.58-32.96,4.35-6.24,7.77-13.1,10.21-20.5,25.23,19.26,44.87,45.45,56.22,74.9Z"/>
              <path d="M751.27,921.88l-.51.88c-.12-.47-.25-.94-.4-1.42l.92.54Z"/>
            </g>
          </g>
        </g>
        <path class="cls-2" d="M742.11,969.93c-24.32-3.75-58.2-6.27-104.81-5.04l-.51-2.71c-.4-2.08-.78-4.1-1.19-6.2-.03-.17-.07-.33-.11-.6-1.85-9.3-3.9-18.41-6.11-27.15,9.52-1.75,27.65-4.66,51.4-6.34,14.37-1.01,29.79-1.45,46.66,5.16,3.31,1.29,6.56,2.79,9.62,4.49,3,12.01,4.7,24.41,5.03,36.95l.04,1.45Z"/>
        <path class="cls-2" d="M621.65,965.4c-72.23,2.96-133.62,12.87-175.56,21.57l.33-.18c28.42-15.95,57.99-25.58,58.31-25.68,47.25-15.13,77.89-22.34,109.5-29.61,1.65,6.49,3.81,15.54,5.99,26.43.01.08.03.17.04.24.44,2.24.89,4.54,1.33,6.91l.06.33Z"/>
        <path d="M621.65,965.4c4.39-.18,8.82-.33,13.28-.46.79-.03,1.58-.04,2.36-.06"/>
        <path class="cls-2" d="M610.1,916.54c-31.65,7.3-62.41,14.56-110.1,29.83l-2.7.9c-.42.14-.86.28-1.32.44l-.19.06h0c-6.64,2.29-17.94,6.63-29.03,11.56-12.23,5.45-30.2,14.26-46.38,25.42l-18.09,12.45c-.28.07-.54.14-.81.22l-.42-3.34c-.85-6.92-1.29-13.99-1.29-21.04,0-32.52,9.19-64.13,26.58-91.5h0c1.95-1,3.93-1.95,5.95-2.79,29.96-12.67,56.78-4.13,85.18,4.93,19.77,6.31,40.21,12.83,62.86,12.83h.01c7.64,0,15.02-.74,22.37-2.21,2.57,7.14,5.03,14.6,7.36,22.23Z"/>
        <path d="M386.41,1001.67s.04-.01.14-.04c.89-.28,6.04-1.85,14.94-4.2"/>
        <path d="M402.29,997.21c10.2-2.68,25.05-6.34,43.8-10.24"/>
      </g>
      <g>
        <path class="cls-5" d="M715.05,1118.93c-27.15,39.12-69.88,65.1-116.99,71.45-4.03-6.31-7.7-13.02-11.09-20.36l35.95-52.91c20.38-1.96,40.09-8.87,58.47-21.2.03.03,33.63,23.01,33.66,23.03Z"/>
        <path class="cls-5" d="M583.85,1191.72c-31.97,1.74-67.19-6.89-94.62-23.51,5.09-3.17,10.39-6.77,15.7-10.78l70.2,17.52c2.71,5.91,5.67,11.53,8.71,16.77Z"/>
        <path class="cls-5" d="M496.78,1147.53c-6.7,5.03-13.17,9.31-19.56,12.84-38.71-27.74-64.27-70.7-69.87-118,.08-.01,40.13-4.27,40.21-4.28,10.63,19.55,24.9,35.03,42.4,46.16l6.82,63.28Z"/>
        <path class="cls-5" d="M694.82,1016.67l-16.62,66.3c-18.06,12.01-37,20.02-57.03,21.39l-48.22-43.73,15.1-60.28,2.35-.6c33.68-.72,63.74.56,89.77,2.85,5.28,4.32,10.17,9.02,14.65,14.08Z"/>
        <path class="cls-5" d="M574.89,1000.24c-3.04,12.19-14.35,57.28-14.35,57.28,0,0-63.48,16.06-63.49,16.08-16.22-10.23-29.35-24.71-39.07-43.15l4.17-16.7c30.2-6.35,67.87-11.73,112.75-13.51Z"/>
        <path d="M757.95,1013.88c-19.12-4.02-45.31-8.43-77.77-11.28,5.28,4.32,10.17,9.02,14.65,14.08l-16.62,66.3c-18.06,12.01-37,20.02-57.03,21.39l-48.22-43.73,15.1-60.28,2.35-.6c-4.1.08-8.25.21-12.45.36-1.03.04-2.06.07-3.07.13-3.04,12.19-14.35,57.28-14.35,57.28,0,0-63.48,16.06-63.49,16.08-16.22-10.23-29.35-24.71-39.07-43.15l4.17-16.7c-30.51,6.41-53.4,13.8-68.37,19.44,5.14,75.63,57.04,146.47,137.58,166.03,116.93,30.65,233.52-65.7,226.6-185.33ZM407.35,1042.37c.08-.01,40.13-4.27,40.21-4.28,10.63,19.55,24.9,35.03,42.4,46.16l6.82,63.28c-6.7,5.03-13.17,9.31-19.56,12.84-38.71-27.74-64.27-70.7-69.87-118ZM489.24,1168.21c5.09-3.17,10.39-6.77,15.7-10.78l70.2,17.52c2.71,5.91,5.67,11.53,8.71,16.77-31.97,1.74-67.19-6.89-94.62-23.51ZM598.07,1190.38c-4.03-6.31-7.7-13.02-11.09-20.36l35.95-52.91c20.38-1.96,40.09-8.87,58.47-21.2.03.03,33.63,23.01,33.66,23.03-27.15,39.12-69.88,65.1-116.99,71.45Z"/>
      </g>
      <path class="cls-5" d="M575.53,115.59l8.17,18.5c.48,1.08,1.5,1.82,2.67,1.94l20.12,2.05c3.39.35,4.75,4.55,2.22,6.82l-15.07,13.48c-.88.79-1.27,1.99-1.02,3.14l4.27,19.77c.72,3.33-2.86,5.93-5.8,4.22l-17.48-10.17c-1.02-.59-2.28-.59-3.3,0l-17.48,10.17c-2.94,1.71-6.52-.89-5.8-4.22l4.27-19.77c.25-1.15-.14-2.35-1.02-3.14l-15.07-13.48c-2.54-2.27-1.17-6.48,2.22-6.82l20.12-2.05c1.18-.12,2.2-.86,2.67-1.94l8.17-18.5c1.38-3.12,5.8-3.12,7.17,0Z"/>
      <path class="cls-5" d="M405.04,127.69l8.17,18.5c.48,1.08,1.5,1.82,2.67,1.94l20.12,2.05c3.39.35,4.75,4.55,2.22,6.82l-15.07,13.48c-.88.79-1.27,1.99-1.02,3.14l4.27,19.77c.72,3.33-2.86,5.93-5.8,4.22l-17.48-10.17c-1.02-.59-2.28-.59-3.3,0l-17.48,10.17c-2.94,1.71-6.52-.89-5.8-4.22l4.27-19.77c.25-1.15-.14-2.35-1.02-3.14l-15.07-13.48c-2.54-2.27-1.17-6.48,2.22-6.82l20.12-2.05c1.18-.12,2.2-.86,2.67-1.94l8.17-18.5c1.38-3.12,5.8-3.12,7.17,0Z"/>
      <path class="cls-5" d="M234.55,172.08l8.17,18.5c.48,1.08,1.5,1.82,2.67,1.94l20.12,2.05c3.39.35,4.75,4.55,2.22,6.82l-15.07,13.48c-.88.79-1.27,1.99-1.02,3.14l4.27,19.77c.72,3.33-2.86,5.93-5.8,4.22l-17.48-10.17c-1.02-.59-2.28-.59-3.3,0l-17.48,10.17c-2.94,1.71-6.52-.89-5.8-4.22l4.27-19.77c.25-1.15-.14-2.35-1.02-3.14l-15.07-13.48c-2.54-2.27-1.17-6.48,2.22-6.82l20.12-2.05c1.18-.12,2.2-.86,2.67-1.94l8.17-18.5c1.38-3.12,5.8-3.12,7.17,0Z"/>
      <path class="cls-5" d="M738.85,125.62l-8.17,18.5c-.48,1.08-1.5,1.82-2.67,1.94l-20.12,2.05c-3.39.35-4.75,4.55-2.22,6.82l15.07,13.48c.88.79,1.27,1.99,1.02,3.14l-4.27,19.77c-.72,3.33,2.86,5.93,5.8,4.22l17.48-10.17c1.02-.59,2.28-.59,3.3,0l17.48,10.17c2.94,1.71,6.52-.89,5.8-4.22l-4.27-19.77c-.25-1.15.14-2.35,1.02-3.14l15.07-13.48c2.54-2.27,1.17-6.48-2.22-6.82l-20.12-2.05c-1.18-.12-2.2-.86-2.67-1.94l-8.17-18.5c-1.38-3.12-5.8-3.12-7.17,0Z"/>
      <g>
        <path d="M339.34,258.93l-8.18,1.55c-1.87.35-3.67.7-5.41,1.04-1.74.34-3.42.67-5.04.99-1.63.32-3.21.64-4.75.95-1.54.31-3.04.61-4.51.92-1.47.3-2.91.6-4.34.9s-2.83.59-4.23.89c-1.41.3-2.81.6-4.2.9-1.4.3-2.81.61-4.23.92s-2.86.63-4.33.96c-1.47.33-2.96.66-4.5,1.01-1.53.35-3.1.7-4.72,1.08-1.62.37-3.29.76-5.02,1.17-1.73.4-3.51.83-5.37,1.27l-5.34,1.28-10.86,56.44-25.78,129.52-25.73,122.18,70.2-.58,7.54-39.9,46.83-1.62,7.39,41.11,70.05-.35-16.89-85.4-48.56-237.18ZM315.26,476.8l-23.31,1.56,11.52-65.11,11.79,63.56Z"/>
        <path d="M575.94,474.45c-.12-1.93-.29-3.84-.52-5.69-.23-1.86-.52-3.71-.86-5.51-.34-1.79-.75-3.58-1.2-5.33-.45-1.73-.97-3.46-1.53-5.15-.56-1.67-1.18-3.34-1.86-4.97-.67-1.62-1.4-3.22-2.17-4.76-.77-1.55-1.6-3.09-2.47-4.57-.85-1.46-1.78-2.94-2.76-4.39-.96-1.42-1.98-2.83-3.03-4.2-1.04-1.35-2.15-2.7-3.32-4.04l-33.52-37.64-33.81-37.05c-1.14-1.23-2.29-2.48-3.47-3.74l-3.59-3.86c-1.22-1.31-2.46-2.63-3.72-3.98-1.05-1.12-2.12-2.27-3.19-3.41l-.08-24.59c1.38-.09,2.7-.17,4-.25,1.58-.1,3.11-.19,4.59-.28,1.49-.09,2.94-.17,4.37-.25,1.43-.08,2.84-.16,4.26-.23,1.41-.08,2.82-.15,4.26-.22,1.43-.07,2.88-.14,4.37-.22,1.49-.07,3.01-.14,4.6-.21,1.02-.05,2.07-.09,3.14-.14l.08,45,8.75-.28c1.83-.06,3.58-.11,5.25-.16,1.68-.05,3.29-.09,4.85-.13,1.56-.04,3.06-.08,4.53-.11,1.47-.03,2.9-.07,4.31-.09,1.41-.03,2.79-.06,4.17-.08,1.38-.03,2.74-.05,4.12-.07s2.76-.04,4.17-.06l8.84-.1c1.56-.01,3.17-.03,4.86-.04,1.68-.01,3.43-.02,5.26-.03l8.47-.03v-59.3c-.01-2.15-.1-4.29-.27-6.36-.17-2.08-.43-4.15-.77-6.13-.34-2-.77-3.98-1.27-5.88-.51-1.91-1.1-3.79-1.77-5.6-.67-1.81-1.43-3.59-2.26-5.28-.83-1.7-1.76-3.36-2.74-4.93-.99-1.58-2.07-3.11-3.21-4.55-1.14-1.45-2.38-2.84-3.67-4.14-1.3-1.31-2.68-2.54-4.1-3.66-1.44-1.14-2.95-2.2-4.51-3.15-1.57-.96-3.22-1.84-4.88-2.6-1.69-.77-3.44-1.45-5.21-2.01-1.79-.57-3.64-1.04-5.51-1.39-1.88-.36-3.81-.61-5.75-.75-1.94-.14-3.94-.17-5.95-.1-1.92.07-3.76.15-5.54.23-1.79.08-3.51.15-5.2.23-1.68.08-3.31.16-4.9.24-1.59.08-3.14.16-4.67.24-1.52.08-3.01.17-4.49.25-1.47.08-2.92.17-4.37.26-1.45.09-2.88.18-4.31.27-1.43.09-2.87.19-4.31.28-1.44.1-2.9.2-4.38.3-1.47.11-2.96.21-4.48.33-1.52.11-3.07.23-4.66.35-1.59.12-3.22.25-4.9.39-1.68.14-3.4.28-5.18.43-1.78.15-3.63.31-5.54.49-1.99.18-3.97.46-5.89.85-1.91.38-3.8.87-5.64,1.45-1.82.58-3.62,1.26-5.35,2.02-1.72.76-3.41,1.62-5.03,2.56-1.6.93-3.18,1.96-4.68,3.07-1.48,1.09-2.93,2.28-4.31,3.54-1.36,1.24-2.68,2.58-3.91,3.97-1.23,1.38-2.4,2.85-3.49,4.36-1.09,1.51-2.12,3.09-3.06,4.72-.94,1.62-1.82,3.31-2.62,5.04-.79,1.72-1.52,3.52-2.16,5.33-.64,1.82-1.21,3.7-1.69,5.59-.48,1.9-.89,3.86-1.21,5.83-.32,1.98-.57,4.01-.72,6.03-.16,2.05-.23,4.15-.22,6.21l.14,33.52c0,1.93.07,3.85.19,5.69.12,1.85.29,3.7.52,5.51.23,1.8.52,3.59.86,5.32.34,1.73.74,3.46,1.19,5.14.45,1.68.97,3.34,1.54,4.96.56,1.61,1.19,3.21,1.88,4.77.68,1.55,1.42,3.08,2.21,4.56.78,1.47,1.64,2.94,2.54,4.37.89,1.41,1.85,2.81,2.85,4.16.99,1.34,2.05,2.67,3.16,3.97,1.07,1.25,2.22,2.5,3.41,3.72,1.29,1.35,2.56,2.68,3.8,3.99,1.25,1.32,2.49,2.62,3.69,3.89l7.01,7.44c1.13,1.2,2.24,2.38,3.33,3.56l21.44,23.14c.98,1.07,1.95,2.13,2.94,3.21.98,1.07,1.96,2.14,2.94,3.22l2.96,3.25,32.85,36.51.06,34.35-33.31.41-.15-45.2-18.82.53-48.5,1.74.25,57.57c0,2.11.1,4.22.28,6.26.17,2.03.43,4.06.77,6.03.34,1.96.76,3.91,1.26,5.78.5,1.87,1.09,3.72,1.75,5.49.66,1.78,1.41,3.53,2.23,5.2.82,1.67,1.72,3.3,2.69,4.85.98,1.56,2.04,3.07,3.15,4.48,1.12,1.43,2.33,2.8,3.6,4.08,1.26,1.28,2.61,2.5,4.02,3.63,1.41,1.13,2.89,2.19,4.41,3.14,1.53.96,3.14,1.85,4.77,2.62,1.64.78,3.36,1.48,5.1,2.08,1.74.59,3.56,1.1,5.39,1.5,1.83.4,3.73.7,5.64.9,1.87.19,3.79.29,5.72.29h.13l65.88-.12c1.97,0,3.94-.11,5.87-.32,1.92-.21,3.82-.53,5.66-.94,1.84-.41,3.67-.94,5.41-1.55,1.75-.61,3.48-1.33,5.13-2.14,1.65-.8,3.26-1.71,4.81-2.71,1.53-.98,3.02-2.07,4.44-3.24,1.4-1.15,2.76-2.41,4.04-3.74,1.27-1.32,2.48-2.73,3.61-4.19,1.12-1.46,2.18-3,3.16-4.61.97-1.58,1.87-3.26,2.7-4.99.81-1.71,1.56-3.5,2.23-5.33.66-1.83,1.25-3.73,1.75-5.64.5-1.94.93-3.93,1.26-5.93.34-2.01.59-4.1.76-6.2.17-2.11.25-4.28.25-6.43v-43.84c0-1.99-.07-3.96-.18-5.88Z"/>
        <path d="M730.65,247.1c-1.89-.23-3.74-.45-5.56-.66-1.82-.21-3.62-.42-5.38-.61s-3.5-.39-5.21-.57c-1.71-.18-3.4-.36-5.06-.54-1.66-.17-3.3-.34-4.93-.5-1.62-.16-3.22-.32-4.8-.47-1.59-.15-3.16-.3-4.71-.44-1.55-.14-3.09-.28-4.62-.42-1.53-.14-3.04-.27-4.54-.4-1.51-.13-3-.25-4.49-.38-1.49-.12-2.97-.24-4.46-.36-1.48-.12-2.96-.23-4.42-.34-1.47-.11-2.95-.22-4.43-.33-1.47-.1-2.95-.21-4.42-.31-1.48-.1-2.97-.2-4.45-.3-1.49-.1-2.99-.19-4.49-.29-1.51-.09-3.02-.18-4.56-.27-1.53-.09-3.07-.17-4.63-.26-1.56-.08-3.13-.17-4.71-.25-1.59-.08-3.19-.16-4.82-.24-1.63-.08-3.27-.15-4.94-.22-1.67-.07-3.36-.14-5.08-.21-1.72-.07-3.46-.13-5.24-.2-1.77-.06-3.58-.12-5.4-.18-1.83-.06-3.7-.11-5.59-.16-1.9-.05-3.83-.1-5.8-.14l-8.68-.2-.33,343.31,147.55.35.31-68.87-19.09-.45-61.38-1.09.18-72.65,10.82.36,30.39,1.25c1.61.07,3.27.15,4.99.24l14.25.71.27-67.01-7.96-.53c-1.87-.13-3.67-.24-5.41-.36l-5.04-.32c-1.62-.1-3.2-.2-4.74-.29l-4.51-.26c-1.47-.08-2.92-.17-4.34-.25l-21.56-1.08c-1.54-.07-3.12-.14-4.74-.21-.74-.03-1.5-.06-2.26-.1l.15-59.7c.62.04,1.23.07,1.83.11,1.7.1,3.35.2,4.97.3s3.2.2,4.75.3c1.55.1,3.08.2,4.58.31,1.5.1,2.98.21,4.44.31,1.46.1,2.9.21,4.34.32,1.43.11,2.86.21,4.27.32,1.42.11,2.84.22,4.26.33,1.42.11,2.84.23,4.28.35,1.43.12,2.87.24,4.33.37,1.46.12,2.93.25,4.44.39,1.5.13,3.02.27,4.57.41s3.13.29,4.75.44c1.61.15,3.26.31,4.96.48,1.69.17,3.42.34,5.21.52,1.79.18,3.62.37,5.51.57l9.35.98.3-68.97-7.48-.94c-1.96-.24-3.88-.48-5.77-.71Z"/>
        <path d="M940.61,570.93c-.73-1.73-1.45-3.44-2.17-5.14-.71-1.69-1.41-3.36-2.11-5.02l-13.4-32.46-21.73-54.5-24.74-64.58c.36-.71.72-1.41,1.08-2.1.91-1.78,1.8-3.51,2.68-5.21l5.09-9.84c.82-1.58,1.63-3.13,2.42-4.66l4.65-8.88,12.99-24.4c.7-1.3,1.4-2.6,2.11-3.9l2.12-3.91c.71-1.3,1.42-2.6,2.13-3.92.71-1.31,1.43-2.62,2.15-3.94l2.19-3.98c.73-1.33,1.47-2.68,2.23-4.03.75-1.36,1.51-2.72,2.27-4.1l2.33-4.18c.79-1.41,1.58-2.83,2.39-4.27.81-1.44,1.63-2.9,2.47-4.38.83-1.48,1.68-2.98,2.54-4.5.86-1.52,1.74-3.06,2.63-4.62.89-1.56,1.8-3.15,2.73-4.76l5.43-9.44-10.47-2.98c-1.89-.54-3.7-1.04-5.43-1.53-1.74-.48-3.4-.95-5.01-1.39-1.61-.44-3.17-.87-4.69-1.28-1.52-.41-3-.81-4.45-1.2-1.46-.39-2.89-.77-4.32-1.15-1.43-.38-2.85-.75-4.28-1.12-1.43-.37-2.86-.74-4.32-1.11-1.46-.37-2.94-.75-4.47-1.13-1.53-.38-3.09-.78-4.71-1.18-1.62-.4-3.29-.81-5.04-1.24-1.75-.42-3.56-.86-5.47-1.32l-6.43-1.54-3.07,5.86c-.87,1.66-1.73,3.29-2.56,4.9-.84,1.61-1.67,3.2-2.49,4.77l-7.02,13.59-16.63,32.83-18.43,37.44.54-109.98-6.97-1.31c-1.83-.34-3.58-.67-5.27-.98-1.68-.31-3.3-.6-4.86-.88-1.56-.28-3.07-.55-4.54-.81-1.47-.26-2.9-.51-4.32-.75-1.41-.24-2.8-.48-4.18-.71-1.38-.23-2.76-.46-4.14-.69-1.38-.23-2.77-.46-4.19-.69-1.41-.23-2.85-.46-4.33-.7-1.47-.23-2.98-.47-4.55-.71-1.57-.24-3.19-.49-4.88-.75-1.69-.26-3.45-.52-5.29-.79l-9.69-1.43-1.57,331.31,67.2.35.36-73.24,12.28-25.58,13.4,36.25,23.92,62.91,74.92.61-5.04-11.92ZM762.65,454.98h0,0Z"/>
      </g>
      <path class="cls-5" d="M909.34,170.55l-8.17,18.5c-.48,1.08-1.5,1.82-2.67,1.94l-20.12,2.05c-3.39.35-4.75,4.55-2.22,6.82l15.07,13.48c.88.79,1.27,1.99,1.02,3.14l-4.27,19.77c-.72,3.33,2.86,5.93,5.8,4.22l17.48-10.17c1.02-.59,2.28-.59,3.3,0l17.48,10.17c2.94,1.71,6.52-.89,5.8-4.22l-4.27-19.77c-.25-1.15.14-2.35,1.02-3.14l15.07-13.48c2.54-2.27,1.17-6.48-2.22-6.82l-20.12-2.05c-1.18-.12-2.2-.86-2.67-1.94l-8.17-18.5c-1.38-3.12-5.8-3.12-7.17,0Z"/>
      <g>
        <path class="cls-4" d="M463.18,680.62c8.11,8.37,14.16,20.77,25.02,25.46,35.66,18.93,67.76-7.89,83.21-42.27,3.01-6.31,5.5-5.47,8.4.51,23.81,46.01,61.89,65.75,99.54,23.41,4.15-4.84,9.8-8,10.13-14.05.22-4.15-3.34-7.26-6.31-5.54-5.61,3.56-2.38,12.22-5.83,17.43-6.16,9.39-16.03,16.47-26.05,18.75-5.72.48-6.49-5.39-6.16-12-.22-6.42,3.71-11.92,5.69-17.13,1.17-3.3-.22-7.92-3.63-8.29-9.21,1.06-2.79,14.49-3.71,21.21-.18,3.23-.07,6.86-.44,9.98-.48,3.49-2.53.66-3.34-1.14-4.26-8.11-4.92-20.66-1.91-30.2,2.27-7.48,7.81-12.88,8.95-20.11,1.25-7.78-.26-16.73-2.16-24.14-1.58-5.61-4.88-1.72-7.04,1.39-4.77,6.75-9.69,14.71-9.76,22.45-.15,5.76,1.36,11.45.92,17.21-.99,11.48-6.05,22.97-14.42,28.62-1.61,1.03-2.75,1.25-3.05.44-.51-1.8,3.67-10.97,4.99-15.26,1.98-5.5,7.81-9.47,6.2-15.74-1.39-5.28-7.85-4.88-9.25.48-.7,2.31-.33,4.95-.04,7.41,1.94,8.88-3.78,30.08-13.35,20.22-8.18-7.78-17.17-19.08-16.77-30.64.29-7.37,5.58-17.17,12.4-18.6,2.27-.51,4.77-.37,6.97-1.1,5.58-1.43,5.06-11.45-.7-12.03-6.31-.15-13.54,8.62-18.09,13.54-1.69,1.87-2.38,2.16-2.05.4,1.8-7.12,4.73-14.82,4.66-22.31.22-9.91-4.07-18.89-8.55-27.15-2.6-4.4-4.88.15-6.35,3.05-7.48,12.8-8.84,27.77-3.82,41.61.77,2.97,1.21,6.02-2.42,2.38-2.16-2.16-4.95-4.66-7.56-6.46-4.62-3.41-10.09-7.67-13.87-4.77-2.86,2.13-3.16,7.08-.88,9.83,2.05,2.68,5.32,1.94,8.14,1.8,3.93-.66,8.26,2.49,11.08,6.6,11.45,13.8,1.91,31.63-8.84,42.19-8.4,9.54-12.95,3.08-16.18-8.48-2.24-5.8,2.57-21.72-7.08-20.03-7.7,5.1,1.8,13.8,4.33,19.52,1.54,4.11,5.36,12.11,4.66,13.65-.29.77-1.47.59-3.08-.44-3.49-2.2-6.9-6.16-9.03-10.16-3.08-5.54-4.77-11.96-5.43-18.38-1.14-9.21,1.5-18.34-2.05-26.75-2.46-5.98-6.46-11.56-10.24-16.55-1.47-1.8-2.79-2.9-3.78-2.71-2.79,1.54-2.31,7.52-2.97,11.08-.51,5.8-.95,11.7.18,17.39,1.72,8.59,8.03,16.44,10.09,25.54,2.27,8.88,2.2,19.67-1.87,27.81-.84,1.61-1.61,2.42-2.09,2.13-.73-.62-.77-2.2-.84-3.49,0-6.09-.59-12.58.15-18.49.62-4.62,1.06-12.77-4.77-12.8-2.79.07-4.73,3.85-3.71,7.37,1.39,4.55,5.14,7.92,6.05,13.02.88,5.36,1.5,16-2.46,18.45-9.98,3.19-25.57-8.11-31.15-17.39-4.51-5.69-1.98-14.16-5.47-20.03-2.49-3.74-7.56-1.72-7.78,2.9-.4,3.56,1.65,6.6,4.04,8.84l.44.44.07.11Z"/>
        <path class="cls-4" d="M441.97,672.09c12.11,18.56,36.69,86,45.9,105.85.73,1.61,1.83,1.65,4.33.66,47.62-18.71,111.72-16.99,160.4-2.13,7.12,2.71,9.5-6.68,11.78-11.92,5.39-13.39,22.82-54.63,31.22-75.36,2.02-5.5,5.54-10.09,8.99-14.6,5.69-7.96,9.47-35.99-6.02-14.97-5.17,7.23-1.8,17.1-6.13,24.73-15.92,31.11-50.78,54.89-82.29,38.01-13.43-7.26-22.75-19.81-29.79-33.97-1.8-3.71-3.49-7.3-5.17-7.12-1.47-.04-3.01,2.6-4.66,5.87-3.67,7.12-7.85,13.61-12.62,19.26-18.05,22.93-50.41,29.64-73.6,11.52-11.41-8.37-23.41-20.69-30.49-34.78-2.71-6.02-.62-13.21-3.3-19.34-1.98-4.77-5.76-9.1-9.36-12.03-.73-.48-1.32-.81-2.02-.4-2.35,2.6.22,15.37,2.53,20.14l.29.62v-.04Z"/>
      </g>
    </g>
  </g>
</svg>