<?xml version="1.0" encoding="UTF-8"?>
<svg id="Ebene_2" data-name="Ebene 2" xmlns="http://www.w3.org/2000/svg" viewBox="0 0 498.22 577.88">
  <defs>
    <style>
      .cls-1 {
        fill: #fff;
      }

      .cls-2 {
        fill: #db7b1b;
      }

      .cls-3 {
        fill: #00acee;
      }

      .cls-4 {
        fill: #1394bc;
      }
    </style>
  </defs>
  <g id="Ebene_1-2" data-name="Ebene 1">
    <g>
      <path id="Background_White" data-name="Background White" class="cls-1" d="M411.94,342.88c-1.36,6.49-.84,13.08,1.36,19.25,1.26,3.35,2.72,6.49,4.08,9.63,3.98,8.68,7.74,16.95,6.91,30.34-1.05,16.74-9,38.3-24.38,66.13-.31.52-.63,1.05-.94,1.57s-.63,1.15-.94,1.67-.63.94-.84,1.46c-.52.94-1.15,1.88-1.67,2.83-.21.31-.42.73-.63,1.05-.21.42-.52.84-.73,1.26-.94,1.46-1.88,2.83-2.83,4.19-.31.42-.52.84-.84,1.15-.94,1.36-1.99,2.72-3.03,4.08-.21.31-.42.63-.73.94-1.15,1.57-2.41,3.03-3.56,4.5-.63.73-1.15,1.46-1.78,2.09-1.88,2.2-3.87,4.39-5.86,6.49l-.84.84-3.56,3.56-1.26,1.26-.84.84-.52.52c-1.78,1.67-3.66,3.24-5.55,4.81-.52.42-.94.84-1.46,1.15-.52.42-.94.73-1.46,1.15h0c-.52.42-.94.73-1.46,1.15-.52.42-1.05.73-1.46,1.15-.42.31-.94.73-1.36,1.05-1.05.84-2.2,1.67-3.24,2.41-.42.31-.94.63-1.36.94-.42.31-.84.52-1.15.84-1.05.73-2.2,1.46-3.24,2.2-.31.21-.63.42-1.05.63-2.2,1.36-4.29,2.72-6.59,4.08-.42.21-.84.52-1.26.73-.84.52-1.78,1.05-2.62,1.46v22.08c-5.96,2.93-12.14,5.65-18.52,8.16-34.32,13.29-63.41,15.17-66.55,15.38h-.63c.31,0,.84,0,1.46-.1h-2.3c-3.24,0-32.23-1.99-66.65-15.28-6.38-2.51-12.56-5.23-18.52-8.16v-22.18c-.73-.42-1.46-.84-2.3-1.26-.42-.21-.73-.42-1.15-.63-.42-.21-.73-.42-1.15-.63-.42-.21-.73-.42-1.15-.63-.42-.21-.73-.42-1.15-.73-.31-.21-.63-.42-.94-.63-.52-.31-1.05-.63-1.57-1.05-.31-.21-.52-.31-.84-.52-2.72-1.78-5.34-3.56-8.06-5.55-.31-.21-.63-.42-.84-.63-1.46-1.05-2.93-2.2-4.39-3.35-.63-.52-1.26-1.05-1.99-1.57-.31-.21-.63-.52-.94-.73-.52-.42-.94-.84-1.46-1.26-.42-.31-.73-.63-1.15-.94-.1-.1-.31-.21-.42-.42-.42-.31-.84-.73-1.26-1.15-1.05-.84-1.99-1.78-3.03-2.72-.42-.42-.84-.73-1.26-1.15-.63-.63-1.26-1.15-1.88-1.78-.31-.31-.63-.63-.94-.94-.31-.31-.73-.63-1.05-1.05-.21-.21-.42-.42-.73-.73l-1.46-1.46c-.31-.31-.73-.73-1.05-1.05-.42-.42-.73-.84-1.15-1.15-.63-.63-1.15-1.26-1.78-1.88-.42-.42-.73-.84-1.15-1.26-.94-1.05-1.88-2.2-2.83-3.35-.31-.42-.63-.73-.94-1.15-.94-1.15-1.88-2.3-2.83-3.56-.31-.42-.63-.84-.94-1.36-.31-.42-.52-.73-.84-1.15-.21-.31-.42-.63-.63-.84-1.26-1.67-2.41-3.35-3.56-5.13-.31-.52-.73-1.15-1.05-1.67-.21-.31-.42-.73-.73-1.05-.21-.31-.42-.63-.63-1.05-.73-1.15-1.46-2.41-2.2-3.66-.31-.52-.63-1.05-.94-1.57v-.21c-.31-.63-.73-1.26-1.05-1.88-15.38-27.83-23.33-49.49-24.38-66.13-.84-13.39,2.93-21.66,6.91-30.34,1.36-3.03,2.83-6.28,4.08-9.63,2.3-6.17,2.72-12.87,1.36-19.25h0c0-.1-66.44-277.59-66.44-277.59-.84-4.19,0-8.37,2.3-11.61,1.78-2.51,4.19-4.08,6.91-4.39h.84l.73-.31c.94-.31,96.68-28.67,217.22-28.67s119.28,7.85,155.48,14.33c39.34,7.11,64.14,14.33,64.35,14.33l.73.21h.73c2.62.42,5.13,1.99,6.91,4.5,2.3,3.24,3.14,7.53,2.3,11.61l-66.44,277.27v.31l.21.52Z"/>
      <g id="Start_and_Background" data-name="Start and Background">
        <path class="cls-3" d="M424.29,77.95v26.26c0,3.45-3.56,5.75-6.7,4.39-20.72-8.89-86.63-34.32-163.54-34.32s-151.51,26.16-173.37,34.63c-3.14,1.26-6.59-1.15-6.59-4.5v-26.37c0-1.88,1.05-3.56,2.72-4.39,14.23-6.7,82.03-35.99,177.14-35.99s154.96,29.09,167.72,35.89c1.57.84,2.51,2.51,2.51,4.29l.1.1Z"/>
        <g id="Stars">
          <path class="cls-1" d="M251.75,44.05l2.3,5.34c.31.73,1.05,1.26,1.78,1.26l5.75.63c2.51.21,3.45,3.35,1.57,4.92l-4.29,3.87c-.63.52-.84,1.36-.73,2.09l1.26,5.65c.52,2.41-2.09,4.29-4.19,3.03l-5.02-2.93c-.73-.42-1.57-.42-2.2,0l-5.02,2.93c-2.09,1.26-4.71-.63-4.19-3.03l1.26-5.65c.21-.73,0-1.57-.73-2.09l-4.29-3.87c-1.88-1.67-.84-4.71,1.57-4.92l5.75-.63c.84,0,1.46-.63,1.78-1.26l2.3-5.34c1.05-2.3,4.19-2.3,5.23,0h.1Z"/>
          <path class="cls-1" d="M177.46,49.39l2.3,5.34c.31.73,1.05,1.26,1.78,1.26l5.75.63c2.51.21,3.45,3.35,1.57,4.92l-4.29,3.87c-.63.52-.84,1.36-.73,2.09l1.26,5.65c.52,2.41-2.09,4.29-4.19,3.03l-5.02-2.93c-.73-.42-1.57-.42-2.2,0l-5.02,2.93c-2.09,1.26-4.71-.63-4.19-3.03l1.26-5.65c.21-.73,0-1.57-.73-2.09l-4.29-3.87c-1.88-1.67-.84-4.71,1.57-4.92l5.75-.63c.84,0,1.46-.63,1.78-1.26l2.3-5.34c1.05-2.3,4.19-2.3,5.23,0h.1Z"/>
          <path class="cls-1" d="M103.17,68.64l2.41,5.34c.31.73,1.05,1.26,1.78,1.26l5.75.63c2.41.21,3.45,3.35,1.57,4.92l-4.29,3.87c-.63.52-.84,1.36-.73,2.09l1.26,5.65c.52,2.41-2.09,4.29-4.19,3.03l-5.02-2.93c-.73-.42-1.57-.42-2.2,0l-5.02,2.93c-2.09,1.26-4.71-.63-4.19-3.03l1.26-5.65c.21-.73,0-1.57-.73-2.09l-4.29-3.87c-1.88-1.67-.84-4.71,1.57-4.92l5.75-.63c.73,0,1.46-.63,1.78-1.26l2.41-5.34c1.05-2.3,4.19-2.3,5.23,0h-.1Z"/>
          <path class="cls-1" d="M320.81,48.44l-2.3,5.34c-.31.73-1.05,1.26-1.78,1.26l-5.75.63c-2.51.21-3.45,3.35-1.57,4.92l4.29,3.87c.63.52.84,1.36.73,2.09l-1.26,5.65c-.52,2.41,2.09,4.29,4.19,3.03l5.02-2.93c.73-.42,1.57-.42,2.2,0l5.02,2.93c2.09,1.26,4.71-.63,4.19-3.03l-1.26-5.65c-.21-.73,0-1.57.73-2.09l4.29-3.87c1.88-1.67.84-4.71-1.57-4.92l-5.75-.63c-.84,0-1.46-.63-1.78-1.26l-2.3-5.34c-1.05-2.3-4.19-2.3-5.23,0h-.1Z"/>
          <path class="cls-1" d="M395.09,68.01l-2.3,5.34c-.31.73-1.05,1.26-1.78,1.26l-5.75.63c-2.51.21-3.45,3.35-1.57,4.92l4.29,3.87c.63.52.84,1.36.73,2.09l-1.26,5.65c-.52,2.41,2.09,4.29,4.19,3.03l5.02-2.93c.73-.42,1.57-.42,2.2,0l5.02,2.93c2.09,1.26,4.71-.63,4.19-3.03l-1.26-5.65c-.21-.73,0-1.57.73-2.09l4.29-3.87c1.88-1.67.84-4.71-1.57-4.92l-5.75-.63c-.84,0-1.46-.63-1.78-1.26l-2.3-5.34c-1.05-2.3-4.19-2.3-5.23,0h-.1Z"/>
        </g>
      </g>
      <g id="Diadem">
        <path class="cls-4" d="M201.73,287.74c3.56,3.66,6.17,9,10.88,11.09,15.49,8.27,29.51-3.45,36.2-18.42,1.36-2.72,2.41-2.41,3.66.21,10.36,20.09,26.99,28.67,43.32,10.15,1.78-2.09,4.29-3.45,4.39-6.17,0-1.78-1.46-3.14-2.72-2.41-2.41,1.57-1.05,5.34-2.51,7.64-2.72,4.08-7.01,7.22-11.3,8.16-2.51.21-2.83-2.3-2.72-5.23,0-2.83,1.57-5.23,2.51-7.43.52-1.46,0-3.45-1.57-3.66-3.98.42-1.26,6.28-1.57,9.21,0,1.36,0,3.03-.21,4.39-.21,1.57-1.15.31-1.46-.52-1.88-3.56-2.09-9-.84-13.18.94-3.24,3.45-5.65,3.87-8.79.52-3.35-.1-7.32-.94-10.57-.73-2.41-2.09-.73-3.03.63-2.09,2.93-4.19,6.38-4.29,9.73,0,2.51.63,5.02.42,7.53-.42,5.02-2.62,10.04-6.28,12.45-.73.42-1.15.52-1.36.21-.21-.73,1.57-4.81,2.2-6.7.84-2.41,3.45-4.08,2.72-6.91-.63-2.3-3.45-2.09-3.98.21-.31,1.05-.1,2.2,0,3.24.84,3.87-1.67,13.08-5.86,8.79-3.56-3.35-7.43-8.27-7.32-13.39.1-3.24,2.41-7.43,5.44-8.06.94-.21,2.09-.21,3.03-.52,2.41-.63,2.2-5.02-.31-5.23-2.72,0-5.86,3.77-7.85,5.86-.73.84-1.05.94-.94.21.73-3.14,2.09-6.49,1.99-9.73,0-4.29-1.78-8.27-3.77-11.82-1.15-1.88-2.09,0-2.72,1.36-3.24,5.55-3.87,12.14-1.67,18.1.31,1.26.52,2.62-1.05,1.05-.94-.94-2.2-1.99-3.24-2.83-1.99-1.46-4.39-3.35-6.07-2.09-1.26.94-1.36,3.03-.42,4.29.94,1.15,2.3.84,3.56.73,1.67-.31,3.56,1.05,4.81,2.83,5.02,5.96.84,13.81-3.87,18.42-3.66,4.19-5.65,1.36-7.01-3.66-.94-2.51,1.15-9.42-3.03-8.68-3.35,2.2.73,5.96,1.88,8.48.63,1.78,2.3,5.23,1.99,5.96-.1.31-.63.21-1.36-.21-1.57-.94-3.03-2.72-3.98-4.39-1.36-2.41-2.09-5.23-2.41-8.06-.52-3.98.63-7.95-.94-11.61-1.05-2.62-2.83-5.02-4.5-7.22-.63-.73-1.26-1.26-1.67-1.15-1.26.63-1.05,3.24-1.26,4.81-.21,2.51-.42,5.13,0,7.53.73,3.77,3.45,7.11,4.39,11.09.94,3.87.94,8.58-.84,12.14-.42.73-.73,1.05-.94.94-.31-.31-.31-.94-.42-1.57,0-2.62-.21-5.44,0-8.06.31-1.99.42-5.55-2.09-5.55-1.26,0-2.09,1.67-1.57,3.24.63,1.99,2.2,3.45,2.62,5.65.42,2.3.63,7.01-1.05,8.06-4.39,1.36-11.09-3.56-13.6-7.53-1.99-2.51-.84-6.17-2.41-8.68-1.05-1.67-3.24-.73-3.35,1.26-.21,1.57.73,2.83,1.78,3.87l.21.21h0l.42.31Z"/>
        <path class="cls-4" d="M192.53,284.07c5.23,8.06,16.01,37.46,19.98,46.14.31.73.84.73,1.88.31,20.72-8.16,48.65-7.43,69.89-.94,3.14,1.15,4.19-2.93,5.13-5.23,2.3-5.86,9.94-23.75,13.6-32.85.84-2.41,2.41-4.39,3.87-6.38,2.51-3.45,4.08-15.69-2.62-6.49-2.3,3.14-.73,7.43-2.72,10.78-6.91,13.6-22.08,23.96-35.89,16.53-5.86-3.14-9.94-8.58-12.97-14.75-.73-1.57-1.57-3.14-2.3-3.14-.63,0-1.36,1.15-1.99,2.51-1.57,3.14-3.45,5.96-5.55,8.37-7.85,9.94-21.97,12.87-32.02,5.02-5.02-3.66-10.15-9-13.29-15.17-1.15-2.62-.31-5.75-1.46-8.48-.84-2.09-2.51-3.98-4.08-5.23-.31-.21-.52-.31-.84-.21-1.05,1.15,0,6.7,1.15,8.79v.31h.1l.1.1Z"/>
      </g>
      <g id="Basketball_Text" data-name="Basketball Text">
        <g>
          <path d="M192.32,553.08c-1.57-.52-2.72-.94-3.98-1.36-1.15-.42-2.41-.84-3.98-1.46v-20.93h8.16c.94,0,1.78.42,2.3,1.05s.84,1.57.84,2.72v5.23c0,1.57-.52,2.41-1.57,2.62h0c.94.52,1.46,1.57,1.46,3.14v6.28c0,2.2-1.36,3.35-3.14,2.72h-.1ZM191.9,538.54v-5.44s0-.1-.1-.1c-1.46,0-2.2-.1-3.66-.21v5.23c1.46.21,2.2.31,3.66.52,0,0,.1,0,.1-.1v.1ZM191.79,548.79v-6.28s0-.1-.1-.21c-1.46-.31-2.2-.42-3.56-.63v6.28c1.46.42,2.09.63,3.56,1.05h.1v-.21Z"/>
          <path d="M206.13,553.19c-1.78-.42-2.72-.63-4.6-1.05-.21,1.36-.42,2.09-.63,3.45-1.57-.42-2.3-.63-3.87-1.15.42-1.88.73-3.66,1.05-5.34s.63-3.24.94-4.71c.31-1.57.63-3.03.84-4.6.31-1.57.63-3.14.94-4.92.31-1.78.63-3.66,1.05-5.75h4.5c.31,1.88.52,3.56.73,5.13s.42,3.14.63,4.6.42,2.93.63,4.39c.21,1.46.42,2.93.63,4.39.21,1.46.42,3.03.63,4.81.21,1.67.52,3.45.73,5.44-1.57-.31-2.41-.52-3.98-.94-.21-1.57-.31-2.3-.52-3.87l.31.1ZM205.5,548.69c-.21-1.46-.31-2.62-.52-3.77-.1-1.15-.31-2.09-.42-3.24-.1-1.15-.31-2.3-.52-3.66v-.94.94c-.31,2.09-.63,3.56-.84,5.13-.21,1.46-.52,3.03-.84,5.02,1.26.21,1.99.31,3.24.63l-.1-.1Z"/>
          <path d="M219.84,550.26c-.84-1.26-1.46-2.3-2.09-3.24s-1.15-1.88-1.78-2.83c-.63-.94-1.26-1.99-2.09-3.14-.84-1.26-1.26-2.72-1.26-4.5v-3.03c0-1.26.31-2.41.94-3.14.52-.73,1.36-1.26,2.3-1.26h4.92c.94,0,1.78.52,2.3,1.26s.84,1.99.84,3.35v4.81c-1.46,0-2.3,0-3.77-.21v-4.08c0-.1,0-.21-.1-.21h-3.56s-.1,0-.1.21v2.93q0,.21.1.42c.84,1.15,1.46,2.2,2.09,3.14s1.15,1.78,1.78,2.72c.63.94,1.26,1.99,2.09,3.24.84,1.36,1.26,2.83,1.26,4.81v4.19c0,1.36-.31,2.51-.94,3.24-.63.73-1.36,1.05-2.3.94-1.99-.31-3.03-.52-4.92-.84-.94-.21-1.78-.84-2.3-1.67s-.84-2.09-.84-3.35v-4.5c1.46.21,2.3.31,3.77.52v3.98s0,.21.1.21c1.46.21,2.09.31,3.56.52,0,0,.1,0,.1-.21v-3.87c0-.21,0-.31-.1-.42h0Z"/>
          <path d="M235.01,561.56c-.42-1.67-.73-3.03-1.05-4.29-.31-1.26-.63-2.41-.94-3.77-.31-1.26-.63-2.62-1.05-4.29-.63,1.99-1.05,2.93-1.67,4.81v6.91c-1.57-.21-2.3-.21-3.77-.42v-31.49h3.77v14.75c.63-1.88,1.15-3.56,1.67-5.13s.94-2.93,1.46-4.5,1.05-3.14,1.67-5.13h3.98c-.63,1.88-1.15,3.45-1.67,4.92s-.94,2.83-1.46,4.29c-.52,1.46-1.05,3.03-1.67,4.92.52,1.88.94,3.45,1.36,4.92.42,1.46.73,2.93,1.15,4.29s.73,2.83,1.15,4.29c.42,1.46.84,3.14,1.36,5.02-1.67,0-2.62-.1-4.29-.31v.21Z"/>
          <path d="M240.45,561.87v-32.65h9.84v5.44h-6.07v7.74h4.5v5.13h-4.6v9.21h6.07v5.44h-5.02c-1.46,0-3.03,0-5.02-.21l.31-.1Z"/>
          <path d="M259.39,534.56v27.41c-1.57,0-2.3.1-3.87.21v-27.62h-3.77v-5.44h11.4v5.23h-3.77v.21Z"/>
          <path d="M273.51,560.62c-1.67.21-2.83.31-4.08.52-1.26.1-2.51.21-4.08.42v-32.23h8.16c.94,0,1.78.52,2.3,1.26.52.84.94,1.99.94,3.35v6.49c0,1.88-.52,3.14-1.46,3.66h0c.94.42,1.57,1.57,1.57,3.45v7.74c0,1.36-.31,2.62-.84,3.56s-1.36,1.46-2.3,1.67l-.21.1ZM272.67,541.68v-7.12c0-.1,0-.21-.1-.21h-3.66v7.53c1.46,0,2.2,0,3.66-.21,0,0,.1,0,.1-.21v.21ZM272.88,555.28v-8.37s0-.21-.1-.21c-1.46,0-2.2.1-3.66.21v8.79c1.46-.1,2.2-.21,3.66-.31,0,0,.1,0,.1-.21v.1Z"/>
          <path d="M287.43,554.23c-1.88.31-2.72.52-4.6.73-.21,1.67-.31,2.51-.52,4.19-1.57.31-2.41.42-3.98.63.31-2.09.52-3.98.73-5.75s.42-3.45.63-5.02.42-3.14.63-4.71.42-3.03.63-4.6.42-3.24.63-4.92c.21-1.78.52-3.56.73-5.55h4.6c.31,1.88.63,3.66.94,5.34s.52,3.14.84,4.6c.21,1.46.52,2.93.73,4.29s.52,2.83.73,4.19c.21,1.46.52,2.93.84,4.5s.63,3.24.94,5.02c-1.57.42-2.41.52-3.98.84-.21-1.57-.31-2.3-.63-3.87l.1.1ZM286.7,549.84c-.21-1.46-.42-2.72-.63-3.77-.21-1.15-.31-2.2-.52-3.35-.21-1.15-.31-2.41-.63-3.87,0-.42,0-.63-.1-1.05v1.05c-.21,1.46-.31,2.83-.52,3.98s-.31,2.3-.42,3.45-.31,2.51-.52,3.98c1.36-.21,1.99-.31,3.24-.42h.1Z"/>
          <path d="M293.71,556.85v-27.62h3.77v22.5c1.15-.31,2.09-.52,3.03-.73s1.78-.42,2.93-.73v4.08c-1.88.63-3.35,1.05-4.81,1.36-1.46.42-2.93.73-4.81,1.26l-.1-.1Z"/>
          <path d="M305.22,553.61v-24.27h3.77v19.46c1.15-.31,2.09-.63,2.93-.84.84-.31,1.78-.52,2.93-.94v3.45c-1.88.73-3.35,1.26-4.71,1.67-1.46.52-2.83.94-4.81,1.57l-.1-.1Z"/>
        </g>
      </g>
      <g id="Basketball">
        <g>
          <path class="cls-2" d="M218.58,413.29h0c-1.88.52-8.37,2.93-14.75,5.75-7.64,3.45-18.52,8.89-26.58,15.9-2.2,1.88-3.66,3.98-4.39,5.34-1.15-5.44-1.78-10.99-1.78-16.74,0-15.69,4.6-30.34,12.56-42.69,1.05-.52,2.2-1.05,3.24-1.57,14.13-5.96,26.58-1.99,39.66,2.2,8.79,2.83,17.89,5.65,27.73,5.65,3.66,0,7.43-.42,11.3-1.26,1.36,3.77,2.72,7.85,4.08,12.14,0,.31.21.73.42,1.46-16.32,3.77-29.72,6.91-51.37,13.81h-.1Z"/>
          <path class="cls-2" d="M274.04,416.43c-6.59,1.26-11.51,4.5-15.17,7.32-10.99,8.37-16.64,17.89-22.81,27.94-1.57,2.51-3.14,5.23-4.81,7.74-6.8,10.57-15.17,20.72-24.8,30.03-15.38-10.25-27.1-25.63-32.33-43.84h0c.21-.84.42-1.78.84-2.51,0,0,1.36-3.14,4.29-5.75,15.07-12.87,40.07-20.93,40.28-21.03,21.55-6.91,34.95-10.04,51.27-13.81.84,3.24,1.99,8.06,3.24,13.92h0Z"/>
          <path class="cls-2" d="M278.53,464.56c-.31,11.3-1.67,23.02-9.84,32.44-1.36,1.57-2.83,3.03-4.5,4.39-4.6.84-9.31,1.26-14.23,1.26-14.86,0-28.77-4.19-40.7-11.3,9.52-9.31,17.89-19.46,24.69-30.03,1.67-2.62,3.35-5.34,4.81-7.85,5.96-9.84,11.51-19.04,21.97-27.1,3.35-2.62,7.85-5.55,13.81-6.7,2.3,12.14,4.29,28.15,3.87,44.89h.1Z"/>
          <path class="cls-2" d="M318.4,463.1c-10.36,17.89-27.62,31.39-48.03,36.83.31-.31.52-.63.73-.84,8.79-10.15,10.25-22.5,10.57-34.42.42-16.95-1.57-33.17-3.87-45.51,2.72-.42,5.34-.42,7.95,0,10.88,1.57,17.68,9.63,21.34,13.92,2.41,2.83,6.7,8.89,9.31,17.68,1.15,4.08,1.88,8.27,1.99,12.45v-.1Z"/>
          <path class="cls-2" d="M328.97,423.55c0,12.24-2.83,23.96-7.85,34.32-.31-2.72-.94-5.44-1.67-8.06-2.72-9.31-7.43-15.8-9.94-18.83-3.66-4.29-11.2-13.39-23.33-15.07-2.93-.42-5.96-.42-9,.1-1.15-5.86-2.3-10.78-3.24-14.02,3.56-.73,12.77-2.41,25.32-3.24,6.7-.42,13.92-.63,21.87,2.41,1.78.73,3.56,1.57,5.23,2.51,1.67,6.38,2.51,13.08,2.51,19.98l.1-.1Z"/>
          <path class="cls-2" d="M325.2,399.27c-.94-.42-1.88-.84-2.83-1.26-8.58-3.35-16.22-3.14-23.23-2.62-12.97.94-22.39,2.62-25.95,3.35h0c-.21-.84-.42-1.36-.52-1.67-1.26-4.29-2.62-8.27-3.98-12.03,5.02-1.46,15.17-5.02,21.87-14.75,2.3-3.35,4.08-7.11,5.13-11.3,13.81,9.73,24.27,23.86,29.61,40.18l-.1.1Z"/>
          <path class="cls-2" d="M292.76,357.11c-.94,4.19-2.51,8.06-4.92,11.4-6.17,8.89-15.8,12.24-20.4,13.5-7.74-19.98-16.85-32.65-26.68-36.93h-.1c3.03-.31,6.17-.52,9.31-.52,15.8,0,30.45,4.6,42.79,12.66v-.1Z"/>
          <path class="cls-2" d="M264.3,382.85c-13.5,3.03-25.43-.73-36.93-4.39-12.66-4.08-25.74-8.16-40.28-2.72,11.3-14.86,27.73-25.53,46.56-29.51,1.99.42,3.98,1.05,5.86,1.88,8.89,3.77,17.47,15.9,24.8,34.74h0Z"/>
        </g>
        <path d="M328.44,391.01c-4.19-10.15-10.46-19.46-18.42-27.52-16.01-16.01-37.35-24.9-59.95-24.9s-43.95,8.79-59.95,24.9c-16.01,16.01-24.9,37.35-24.9,60.06s8.79,43.95,24.9,59.95,37.35,24.9,59.95,24.9,43.95-8.79,59.95-24.9c16.01-16.01,24.9-37.35,24.9-59.95s-2.2-22.29-6.38-32.54h-.1ZM185.31,382.85c.73-.42,1.57-.73,2.41-1.15,13.29-5.55,25.22-1.78,37.88,2.3,8.89,2.83,18.21,5.75,28.46,5.75h0c3.35,0,6.49-.31,9.63-.84.94,2.83,1.99,5.65,2.83,8.58-14.02,3.24-27.83,6.49-48.86,13.29l-2.93.94h0c-3.03,1.15-7.64,2.93-12.14,4.92-7.85,3.45-18.83,9.1-27.31,16.32-.42.31-.84.73-1.15,1.05-.52-3.45-.73-7.01-.73-10.46,0-14.44,4.08-28.46,11.72-40.7h.21ZM311.6,429.2c-3.87-4.6-11.82-14.13-24.9-16.01-1.46-.21-2.93-.31-4.5-.31s-1.88,0-2.83.1c-.63-3.14-1.36-6.17-2.09-9.1,4.39-.84,12.24-1.99,22.29-2.72,6.38-.42,13.29-.63,20.72,2.3,1.36.52,2.62,1.15,3.98,1.78,1.46,5.96,2.2,12.03,2.2,18.21,0,8.79-1.46,17.37-4.39,25.53h0c-2.83-9.84-7.74-16.64-10.46-19.78h0ZM298.94,392.79c-10.88.73-19.36,2.09-23.96,2.93-.94-3.14-1.88-6.17-2.93-9,9-3.03,15.9-8.06,20.61-14.86,1.78-2.62,3.24-5.44,4.39-8.48,10.46,8.16,18.73,19.04,23.75,31.28-8.06-2.62-15.17-2.41-21.87-1.88h0ZM280.84,353.65c3.03,1.36,6.07,2.93,8.89,4.71-.94,3.14-2.2,6.07-4.08,8.68-3.77,5.34-9.31,9.31-16.74,11.82-6.07-14.96-12.77-25.53-20.19-31.7,11.09-.21,21.76,1.99,31.81,6.49h.31ZM233.65,348.84c1.67.42,3.24.94,4.81,1.57,7.64,3.24,15.49,14.02,22.18,30.34-11.61,1.78-22.29-1.67-32.54-4.92-8.48-2.72-17.16-5.44-26.47-5.44s-4.71.21-7.11.52c10.57-11.09,24.17-18.83,39.13-22.08h0ZM177.25,444.16c.21-.52,1.46-2.93,3.66-4.81,14.33-12.24,38.4-20.19,39.45-20.51,20.93-6.7,34.01-9.84,48.65-13.18.73,2.83,1.36,5.75,1.99,8.79-5.86,1.57-10.36,4.6-13.71,7.22-11.3,8.68-17.26,18.42-23.44,28.67l-.31.52c-1.46,2.3-2.93,4.81-4.39,7.11-6.38,9.84-14.02,19.25-22.91,28.04-14.02-9.84-24.38-24.17-29.3-40.49.1-.52.31-.94.52-1.46l-.21.1ZM236.16,462.58c1.67-2.62,3.35-5.23,4.92-7.95,5.75-9.63,11.3-18.62,21.34-26.37,2.62-1.99,5.96-4.29,10.15-5.55,2.62,14.65,3.66,28.67,3.35,41.64-.31,10.78-1.57,21.97-9.21,30.76-1.15,1.26-2.3,2.51-3.66,3.66-4.29.73-8.68,1.15-13.08,1.15-12.77,0-25.32-3.24-36.41-9.31,8.68-8.79,16.32-18.21,22.6-28.04h0ZM277.28,494.91c5.65-9.42,6.7-19.98,7.01-30.24.31-13.5-.84-28.04-3.45-43.32,1.57,0,3.03,0,4.5.21,9.94,1.36,16.22,9,19.67,13.08,2.2,2.62,6.38,8.37,8.79,16.74,1.05,3.56,1.67,7.32,1.88,11.09-8.79,14.86-22.5,26.26-38.4,32.44h0Z"/>
      </g>
      <g id="LeftLightn">
        <path class="cls-3" d="M156.22,485.8c-27.52-26.89-59.54-70.1-57.86-103.38l25.95-37.77-1.57-2.09c-3.14-4.19-6.17-8.48-8.89-12.77-1.46-2.62-2.72-4.5-2.93-4.92-11.3-19.46-17.68-39.45-19.36-60.9h52.53c6.59,26.16,20.4,50.43,42.06,74.08-15.07,10.78-27.2,25.11-35.26,41.64h0v.31c-.31.73-.52,1.46-.73,2.2-6.59,14.44-9.94,29.92-9.94,45.93s5.65,40.7,16.22,57.86l-.21-.21Z"/>
        <path class="cls-4" d="M141.15,267.54c6.7,24.59,19.67,47.5,39.45,69.79-14.02,10.88-25.43,24.69-33.06,40.49v.31c-.1,0-.21.31-.21.31-.31.73-.52,1.46-.73,2.3-6.8,14.86-10.15,30.76-10.15,47.29s2.2,26.16,6.49,38.19c-2.41-2.83-4.92-5.75-7.22-8.79-10.57-13.29-19.15-26.79-24.8-39.03-6.07-13.08-9-24.69-8.68-34.74l23.86-34.74,3.03-4.39-3.24-4.29c-3.14-4.08-5.96-8.27-8.58-12.45-1.46-2.51-2.62-4.39-3.03-5.02-10.25-17.68-16.32-35.78-18.42-55.25h45.62-.31ZM146.91,260.22h-59.33c1.26,24.69,8.48,46.67,20.09,66.55h0c.21.31,1.46,2.09,2.93,4.81,2.83,4.5,5.86,8.89,9.1,13.08l-25.11,36.41c-3.45,50.12,66.55,121.48,91.13,131.94-25.53-19.57-42.06-50.43-42.06-85.07s3.45-31.08,9.73-44.68c.21-.73.42-1.46.73-2.2,8.48-17.37,21.55-32.12,37.56-42.59-21.87-22.91-37.98-48.55-44.78-78.37h0v.1Z"/>
      </g>
      <g id="Right_Lightn" data-name="Right Lightn">
        <path class="cls-3" d="M401.69,382.53c1.67,33.27-30.34,76.59-57.86,103.38,10.46-17.16,16.22-37.04,16.22-57.86s-3.35-31.49-9.94-45.93c-.21-.84-.42-1.57-.73-2.2h0v-.31c-8.06-16.53-20.19-30.76-35.26-41.64,21.66-23.54,35.47-47.92,42.06-74.08h52.53c-1.67,21.55-7.95,41.54-19.36,60.9-.31.42-1.46,2.3-2.93,4.92-2.72,4.29-5.65,8.58-8.89,12.77l-1.57,2.09,25.95,37.77-.21.21Z"/>
        <path class="cls-4" d="M404.41,267.65c-2.09,19.46-8.06,37.56-18.42,55.25-.42.63-1.57,2.41-3.03,5.02-2.62,4.19-5.55,8.37-8.58,12.45l-3.24,4.29,3.03,4.39,23.86,34.74c.21,10.04-2.72,21.66-8.68,34.74-5.75,12.24-14.33,25.84-24.8,39.03-2.41,3.03-4.81,5.96-7.22,8.79,4.29-12.03,6.49-24.9,6.49-38.19s-3.45-32.33-10.15-47.19c-.21-.84-.52-1.57-.73-2.3v-.31c-.1,0-.21-.31-.21-.31-7.74-15.8-19.04-29.72-33.06-40.49,19.78-22.29,32.75-45.2,39.45-69.79h45.62l-.31-.1ZM412.36,260.32h-59.33c-6.8,29.82-22.91,55.45-44.78,78.37,16.01,10.57,29.09,25.32,37.56,42.59.21.63.52,1.36.73,2.2,6.28,13.6,9.73,28.77,9.73,44.68,0,34.74-16.53,65.5-42.06,85.07,24.59-10.46,94.59-81.82,91.13-131.94l-25.11-36.41c3.24-4.29,6.28-8.68,9.1-13.08,1.46-2.62,2.72-4.5,2.93-4.81h0c11.61-19.98,18.83-41.85,20.09-66.55h0v-.1Z"/>
      </g>
      <path class="cls-3" d="M492.09,41.85c-4.81-6.8-11.72-11.2-19.46-12.45-4.29-1.26-28.25-7.85-65.39-14.65C370.09,8.06,312.33,0,247.88,0S126.4,8.06,89.88,14.75c-36.41,6.7-59.74,13.29-64.14,14.65-7.74,1.26-14.65,5.65-19.46,12.45C.84,49.6-1.25,59.43.74,68.95h0c0,.1,66.44,277.59,66.44,277.59.52,2.83.31,5.75-.63,8.48-.94,2.62-2.2,5.23-3.45,8.06-4.39,9.52-9.84,21.34-8.68,39.76,1.26,19.67,9.94,44.05,26.79,74.39,11.82,21.34,27.62,39.86,47.19,55.04,10.67,8.27,22.39,15.59,34.95,21.87v-22.18c-.73-.42-1.46-.84-2.3-1.26-.42-.21-.73-.42-1.15-.63-.42-.21-.73-.42-1.15-.63-.42-.21-.73-.42-1.15-.63-.42-.21-.73-.42-1.15-.73-.31-.21-.63-.42-.94-.63-.52-.31-1.05-.63-1.57-1.05-.31-.21-.52-.31-.84-.52-2.72-1.78-5.34-3.56-8.06-5.55-.31-.21-.63-.42-.84-.63-1.46-1.05-2.93-2.2-4.39-3.35-.63-.52-1.26-1.05-1.99-1.57-.31-.21-.63-.52-.94-.73-.52-.42-.94-.84-1.46-1.26-.42-.31-.73-.63-1.15-.94-.1-.1-.31-.21-.42-.42-.42-.31-.84-.73-1.26-1.15-1.05-.84-1.99-1.78-3.03-2.72-.42-.42-.84-.73-1.26-1.15-.63-.63-1.26-1.15-1.88-1.78-.31-.31-.63-.63-.94-.94-.31-.31-.73-.63-1.05-1.05-.21-.21-.42-.42-.73-.73l-1.46-1.46c-.31-.31-.73-.73-1.05-1.05-.42-.42-.73-.84-1.15-1.15-.63-.63-1.15-1.26-1.78-1.88-.42-.42-.73-.84-1.15-1.26-.94-1.05-1.88-2.2-2.83-3.35-.31-.42-.63-.73-.94-1.15-.94-1.15-1.88-2.3-2.83-3.56-.31-.42-.63-.84-.94-1.36-.31-.42-.52-.73-.84-1.15-.21-.31-.42-.63-.63-.84-1.26-1.67-2.41-3.35-3.56-5.13-.31-.52-.73-1.15-1.05-1.67-.21-.31-.42-.73-.73-1.05-.21-.31-.42-.63-.63-1.05-.73-1.15-1.46-2.41-2.2-3.66-.31-.52-.63-1.05-.94-1.57v-.21c-.31-.63-.73-1.26-1.05-1.88-15.38-27.83-23.33-49.49-24.38-66.13-.84-13.39,2.93-21.66,6.91-30.34,1.36-3.03,2.83-6.28,4.08-9.63,2.3-6.17,2.72-12.87,1.36-19.25h0c0-.1-66.44-277.59-66.44-277.59-.84-4.19,0-8.37,2.3-11.61,1.78-2.51,4.19-4.08,6.91-4.39h.84l.73-.31c.94-.31,96.68-28.67,217.22-28.67s119.28,7.85,155.48,14.33c39.34,7.11,64.14,14.33,64.35,14.33l.73.21h.73c2.62.42,5.13,1.99,6.91,4.5,2.3,3.24,3.14,7.53,2.3,11.61l-66.44,277.27v.31c-1.36,6.49-.94,13.08,1.36,19.25,1.26,3.35,2.72,6.49,4.08,9.63,3.98,8.68,7.74,16.95,6.91,30.34-1.05,16.74-9,38.3-24.38,66.13-.31.52-.63,1.05-.94,1.57s-.63,1.15-.94,1.67-.63.94-.84,1.46c-.52.94-1.15,1.88-1.67,2.83-.21.31-.42.73-.63,1.05-.21.42-.52.84-.73,1.26-.94,1.46-1.88,2.83-2.83,4.19-.31.42-.52.84-.84,1.15-.94,1.36-1.99,2.72-3.03,4.08-.21.31-.42.63-.73.94-1.15,1.57-2.41,3.03-3.56,4.5-.63.73-1.15,1.46-1.78,2.09-1.88,2.2-3.87,4.39-5.86,6.49l-.84.84-3.56,3.56-1.26,1.26-.84.84-.52.52c-1.78,1.67-3.66,3.24-5.55,4.81-.52.42-.94.84-1.46,1.15-.52.42-.94.73-1.46,1.15h0c-.52.42-.94.73-1.46,1.15-.52.42-1.05.73-1.46,1.15-.42.31-.94.73-1.36,1.05-1.05.84-2.2,1.67-3.24,2.41-.42.31-.94.63-1.36.94-.42.31-.84.52-1.15.84-1.05.73-2.2,1.46-3.24,2.2-.31.21-.63.42-1.05.63-2.2,1.36-4.29,2.72-6.59,4.08-.42.21-.84.52-1.26.73-.84.52-1.78,1.05-2.62,1.46v22.08c12.66-6.28,24.38-13.6,34.95-21.87,19.46-15.17,35.37-33.69,47.19-55.04,16.85-30.45,25.63-54.72,26.79-74.39,1.15-18.31-4.29-30.24-8.68-39.76-1.26-2.83-2.51-5.55-3.45-8.06-.94-2.62-1.15-5.65-.63-8.48l66.44-277.27v-.31c2.09-9.52,0-19.36-5.44-27.1l.1.52Z"/>
      <g id="ASEK_Text" data-name="ASEK Text">
        <path d="M168.98,207.48l-21.14-103.38-3.56.63c-.84.1-1.57.31-2.3.42s-1.46.31-2.2.42c-.73.1-1.36.31-2.09.42-.63.1-1.36.31-1.99.42-.63.1-1.26.21-1.88.42-.63.1-1.26.21-1.88.42-.63.1-1.26.21-1.88.42-.63.1-1.26.21-1.88.42-.63.1-1.26.31-1.88.42-.63.1-1.26.31-1.99.42-.63.1-1.36.31-2.09.52-.73.1-1.46.31-2.2.52s-1.57.31-2.3.52l-2.3.52-4.71,24.59-11.2,56.4-11.2,53.26,30.55-.21,3.24-17.37,20.4-.73,3.24,17.89,30.55-.21-7.32-37.14h0ZM137.28,199.11l-10.15.73,5.02-28.36,5.13,27.73v-.1Z"/>
        <path d="M250.91,200.58v21.97c0,.94-.21,1.88-.31,2.72s-.31,1.78-.52,2.62-.52,1.67-.73,2.51c-.31.84-.63,1.57-.94,2.3-.31.73-.73,1.46-1.15,2.2-.42.73-.94,1.36-1.36,1.99-.52.63-1.05,1.26-1.57,1.88s-1.15,1.15-1.78,1.67c-.63.52-1.26.94-1.99,1.36-.63.42-1.36.84-2.09,1.15-.73.31-1.46.63-2.2.94-.73.31-1.57.52-2.3.63-.84.21-1.67.31-2.51.42-.84,0-1.67.1-2.51.1h-28.67c-.84,0-1.67,0-2.51-.1-.84,0-1.67-.21-2.41-.42-.84-.21-1.57-.42-2.3-.63s-1.46-.52-2.2-.94c-.73-.31-1.46-.73-2.09-1.15s-1.26-.84-1.88-1.36-1.26-1.05-1.78-1.57-1.05-1.15-1.57-1.78c-.52-.63-.94-1.26-1.36-1.99-.42-.63-.84-1.36-1.15-2.09s-.73-1.46-.94-2.3c-.31-.73-.52-1.57-.73-2.41s-.42-1.67-.52-2.51c-.1-.84-.21-1.78-.31-2.62,0-.94-.1-1.78-.1-2.72v-25.11c-.1,0,21.03-.73,21.03-.73l8.16-.21v19.67l14.54-.21v-14.96l-14.33-15.9-1.26-1.46c-.42-.42-.84-.94-1.26-1.36-.42-.52-.84-.94-1.26-1.36l-9.31-10.04c-.52-.52-.94-1.05-1.46-1.57l-3.03-3.24c-.52-.52-1.05-1.15-1.57-1.67-.52-.63-1.05-1.15-1.67-1.78-.52-.52-1.05-1.05-1.46-1.57-.52-.52-.94-1.15-1.36-1.78-.42-.63-.84-1.15-1.26-1.78-.42-.63-.73-1.26-1.15-1.88-.31-.63-.63-1.26-.94-1.99-.31-.73-.52-1.36-.84-2.09-.21-.73-.42-1.46-.63-2.2-.21-.73-.42-1.46-.52-2.2-.1-.73-.31-1.57-.42-2.3,0-.84-.21-1.57-.21-2.41v-19.88c0-.84.21-1.78.31-2.62s.31-1.67.52-2.51c.21-.84.42-1.67.73-2.41.31-.84.63-1.57.94-2.3.31-.73.73-1.46,1.15-2.2.42-.73.84-1.36,1.36-2.09.52-.63.94-1.26,1.57-1.88.52-.63,1.15-1.15,1.67-1.67.63-.52,1.26-1.05,1.88-1.57s1.36-.94,1.99-1.36c.73-.42,1.46-.84,2.2-1.15.73-.31,1.57-.63,2.3-.84.84-.21,1.57-.52,2.41-.63.84-.21,1.67-.31,2.62-.31.84,0,1.67-.1,2.41-.21.84,0,1.57-.1,2.3-.21.73,0,1.46-.1,2.09-.21.73,0,1.36-.1,1.99-.1s1.26,0,1.99-.1c.63,0,1.26,0,1.88-.1.63,0,1.26,0,1.88-.1.63,0,1.26,0,1.88-.1.63,0,1.26,0,1.88-.1.63,0,1.26,0,1.99-.1h1.99c.73,0,1.36,0,2.09-.1h2.3c.73,0,1.57,0,2.41-.1h2.62c.84,0,1.67.21,2.51.31.84.1,1.57.31,2.41.63.73.21,1.57.52,2.3.84s1.46.73,2.09,1.15c.73.42,1.36.84,1.99,1.36.63.52,1.26,1.05,1.78,1.57s1.05,1.15,1.57,1.78.94,1.26,1.36,1.99c.42.73.84,1.36,1.15,2.2.31.73.73,1.46.94,2.3.31.84.52,1.57.73,2.41s.42,1.67.52,2.62c.1.84.21,1.78.31,2.62,0,.94.1,1.88.1,2.83v25.84h-29.3c0,.1,0-19.46,0-19.46h-7.11c-.63,0-1.26,0-1.88.1h-1.88c-.63,0-1.36,0-1.99.1-.52,0-1.15,0-1.78.1v10.67l1.46,1.46c.52.63,1.05,1.15,1.57,1.78l1.57,1.67c.52.52,1.05,1.05,1.46,1.57l14.75,16.11,14.65,16.43c.52.63,1.05,1.15,1.46,1.78s.94,1.26,1.36,1.78c.42.63.84,1.26,1.26,1.88s.73,1.36,1.05,1.99c.31.63.63,1.36.94,2.09.31.73.52,1.46.84,2.2.21.73.52,1.46.63,2.2.21.73.42,1.57.52,2.3.1.84.31,1.57.42,2.41,0,.84.21,1.67.21,2.51v2.51l-.63.63Z"/>
        <path d="M288.68,126.81v26.05h3.03l9.42.52h3.87c.63.21,1.36.21,2.09.21h2.2c.73.21,1.57.21,2.3.31l3.45.21v29.19c-.1,0-6.28-.31-6.28-.31-.73,0-1.46,0-2.2-.1l-13.18-.52-4.71-.21v31.6l26.68.52,8.37.21v30.03c-.1,0-64.45-.1-64.45-.1V95.01h22.08c.73,0,1.36,0,1.99.1.63,0,1.36,0,1.99.1.63,0,1.26,0,1.99.1s1.26,0,1.88.1,1.26,0,1.88.1c.63,0,1.26,0,1.88.1.63,0,1.26,0,1.88.1.63,0,1.26,0,1.88.21.63,0,1.26,0,1.99.21.63,0,1.36.1,1.99.21.63,0,1.36.1,1.99.21.63,0,1.36.1,2.09.21.73,0,1.36.1,2.09.21.73,0,1.36.1,2.09.21.73,0,1.46.1,2.2.21.73,0,1.46.21,2.3.21.73,0,1.57.21,2.3.21.84,0,1.57.21,2.41.31.84,0,1.67.21,2.51.31l3.24.42v30.03c-.1,0-4.19-.42-4.19-.42-.84,0-1.57-.21-2.41-.21-.73,0-1.57-.21-2.3-.21s-1.46-.1-2.2-.21c-.73,0-1.36-.1-2.09-.21-.73,0-1.36-.1-1.99-.21-.63,0-1.26-.1-1.88-.21-.63,0-1.26-.1-1.88-.21-.63,0-1.26,0-1.88-.21-.63,0-1.26,0-1.88-.1-.63,0-1.26,0-1.88-.1-.63,0-1.26,0-1.88-.1-.63,0-1.26,0-1.99-.1-.63,0-1.36,0-1.99-.1-.63,0-1.36,0-2.09-.1-.73,0-1.46,0-2.2-.1h-.84l.31.73Z"/>
        <path d="M411.94,245.26l-32.65-.21-10.46-27.41-5.86-15.8-5.34,11.09-.21,31.91h-29.3c0-.1.73-144.5.73-144.5l4.19.63c.84.1,1.57.21,2.3.31.73,0,1.46.21,2.09.31.73,0,1.36.21,1.99.31.63.1,1.26.21,1.88.31.63,0,1.26.21,1.78.31.63.1,1.26.21,1.78.31.63,0,1.15.21,1.78.31.63,0,1.26.21,1.88.31.63.1,1.26.21,1.99.31.63.1,1.36.21,2.09.42.73.1,1.46.31,2.3.42l3.03.52-.21,47.92,8.06-16.32,7.22-14.33,3.03-5.96c.31-.73.73-1.36,1.05-2.09s.73-1.36,1.15-2.09l1.36-2.51,2.83.63c.84.21,1.57.42,2.41.63.73.21,1.46.31,2.2.52s1.36.31,2.09.52c.63.21,1.26.31,1.99.52.63.21,1.26.31,1.88.52.63.21,1.26.31,1.88.52.63.21,1.26.31,1.88.52.63.21,1.26.31,1.88.52.63.21,1.36.31,2.09.52s1.46.42,2.2.63c.73.21,1.57.42,2.41.63l4.6,1.26-2.41,4.08c-.42.73-.84,1.36-1.15,2.09-.42.73-.73,1.36-1.15,1.99-.42.63-.73,1.26-1.15,1.99-.31.63-.73,1.26-1.05,1.88s-.73,1.26-1.05,1.88l-1.05,1.78c-.31.63-.63,1.15-.94,1.78-.31.63-.63,1.15-.94,1.78l-.94,1.78c-.31.52-.63,1.15-.94,1.67s-.63,1.15-.94,1.67l-.94,1.67c-.31.52-.63,1.15-.94,1.67l-5.65,10.67-1.99,3.87c-.31.63-.73,1.36-1.05,1.99l-2.2,4.29c-.42.73-.73,1.46-1.15,2.3-.1.31-.31.63-.42.94l10.78,28.15,9.52,23.75,5.86,14.13c.31.73.63,1.46.94,2.2.31.73.63,1.46.94,2.2l2.2,5.23-.21.1Z"/>
      </g>
    </g>
  </g>
</svg>