<?xml version="1.0" encoding="UTF-8"?>
<svg id="Ebene_2" data-name="Ebene 2" xmlns="http://www.w3.org/2000/svg" viewBox="0 0 1143.89 1313.27">
  <g id="Ebene_1-2" data-name="Ebene 1">
    <g>
      <path d="M945.56,785.73c-3.09,14.78-2,30.09,3.16,44.25,2.81,7.69,6.14,14.95,9.37,21.98,9.18,19.96,17.85,38.82,15.95,69.59-2.37,38.32-20.69,87.98-56,151.84-.69,1.25-1.38,2.49-2.09,3.72-.74,1.32-1.5,2.63-2.26,3.93-.66,1.14-1.34,2.28-2.01,3.41-1.3,2.17-2.62,4.32-3.95,6.45-.5.8-1.01,1.6-1.52,2.4-.59.93-1.18,1.85-1.78,2.77-2.12,3.27-4.3,6.51-6.52,9.7-.64.93-1.29,1.85-1.94,2.76-2.26,3.19-4.57,6.34-6.93,9.45-.52.69-1.05,1.38-1.58,2.07-2.69,3.49-5.44,6.94-8.26,10.33-1.36,1.65-2.74,3.29-4.15,4.91-4.37,5.1-8.89,10.07-13.56,14.93-.61.64-1.23,1.28-1.85,1.91-2.65,2.72-5.34,5.4-8.09,8.05-.99.95-1.98,1.9-2.98,2.84-.65.61-1.29,1.21-1.94,1.82-.42.39-.84.78-1.27,1.17-4.11,3.79-8.32,7.49-12.62,11.11-1.09.91-2.18,1.82-3.28,2.73-1.09.89-2.18,1.79-3.29,2.67,0,.01,0,.02-.03.03-1.1.89-2.22,1.77-3.33,2.65-1.15.9-2.3,1.8-3.46,2.68-1.03.8-2.07,1.58-3.11,2.36-2.49,1.88-5.01,3.73-7.56,5.55-1.05.75-2.1,1.5-3.16,2.24-.9.64-1.81,1.27-2.72,1.89-2.46,1.7-4.95,3.37-7.47,5.02-.78.52-1.56,1.03-2.35,1.53-4.93,3.2-9.96,6.3-15.09,9.31-.99.59-1.99,1.17-2.99,1.74-2,1.16-4,2.3-6.03,3.42v50.72c-13.7,6.78-27.89,13.02-42.52,18.69-78.7,30.53-229.94,30.6-308.84-.01-14.62-5.67-28.79-11.9-42.49-18.67v-50.94c-1.72-.95-3.45-1.93-5.17-2.93-.86-.5-1.72-1-2.58-1.5-.86-.51-1.72-1.01-2.58-1.53-.86-.51-1.72-1.03-2.58-1.54-.86-.52-1.72-1.04-2.58-1.58-.73-.45-1.46-.9-2.19-1.35-1.24-.77-2.47-1.54-3.7-2.33-.61-.39-1.22-.78-1.83-1.18-6.18-3.97-12.33-8.17-18.43-12.61-.67-.47-1.33-.96-2-1.45-3.38-2.47-6.73-5.02-10.07-7.65-1.49-1.17-2.98-2.35-4.46-3.55-.7-.56-1.4-1.13-2.09-1.7-1.12-.91-2.23-1.84-3.34-2.77-.85-.71-1.69-1.42-2.53-2.14-.36-.3-.71-.6-1.06-.91-.97-.84-1.95-1.68-2.91-2.53-2.31-2.03-4.6-4.09-6.88-6.2-.94-.86-1.87-1.73-2.8-2.61-1.45-1.35-2.9-2.74-4.33-4.14-.72-.69-1.43-1.39-2.14-2.1-.79-.77-1.59-1.56-2.37-2.36-.53-.53-1.05-1.06-1.57-1.59-1.11-1.11-2.2-2.24-3.28-3.38-.8-.83-1.59-1.66-2.38-2.51-.86-.91-1.71-1.83-2.55-2.75-1.36-1.46-2.7-2.94-4.01-4.43-.89-.99-1.77-1.99-2.65-3-2.19-2.5-4.34-5.04-6.47-7.64-.71-.85-1.41-1.7-2.1-2.56-2.16-2.66-4.29-5.38-6.39-8.14-.77-1-1.53-2.01-2.28-3.03-.67-.88-1.32-1.77-1.97-2.66-.48-.66-.97-1.33-1.46-2.01-2.79-3.85-5.52-7.8-8.18-11.83-.84-1.26-1.67-2.53-2.5-3.81-.53-.82-1.06-1.65-1.58-2.49-.5-.78-.99-1.56-1.49-2.35-1.7-2.73-3.38-5.5-5.02-8.32-.7-1.18-1.39-2.38-2.08-3.58-.07-.12-.14-.24-.2-.36-.81-1.4-1.6-2.82-2.39-4.24-35.32-63.86-53.64-113.52-56-151.84-1.9-30.77,6.77-49.63,15.94-69.59,3.23-7.03,6.57-14.29,9.37-21.98,5.17-14.17,6.26-29.47,3.17-44.25l-.07-.32L45.71,148.6c-1.91-9.53.03-19.27,5.34-26.77,4.08-5.75,9.68-9.36,15.77-10.16l1.81-.24,1.74-.52c2.19-.66,221.9-65.91,498.5-65.91,144.28,0,273.78,17.91,357,32.94,90.36,16.32,147.25,32.85,147.8,33.02l1.67.49,1.73.22c6.09.8,11.69,4.41,15.77,10.16,5.31,7.5,7.25,17.24,5.33,26.77l-152.47,636.49-.14.64Z" style="fill: #fff;"/>
      <path d="M1129.54,95.8c-11.02-15.55-26.86-25.6-44.75-28.47-9.94-2.84-64.91-18.11-150.17-33.54C849.41,18.38,716.79,0,568.87,0S289.95,18.38,206.13,33.8c-83.59,15.38-137.13,30.61-147.12,33.54-17.86,2.89-33.66,12.94-44.67,28.46C1.76,113.55-2.84,136.26,1.72,158.1l.07.32,152.55,636.8c1.28,6.39.77,13.25-1.46,19.35-2.17,5.97-4.99,12.1-7.97,18.59-10.06,21.88-22.57,49.1-19.98,91.17,2.79,45.12,22.92,101.01,61.54,170.84,27.08,48.96,63.5,91.47,108.23,126.34,24.39,19.02,51.28,35.8,80.32,50.16v-50.94c-1.72-.95-3.45-1.93-5.17-2.93-.86-.5-1.72-1-2.58-1.5-.86-.51-1.72-1.01-2.58-1.53-.86-.51-1.72-1.03-2.58-1.54-.86-.52-1.72-1.04-2.58-1.58-.73-.45-1.46-.9-2.19-1.35-1.24-.77-2.47-1.54-3.7-2.33-.61-.39-1.22-.78-1.83-1.18-6.18-3.97-12.33-8.17-18.43-12.61-.67-.47-1.33-.96-2-1.45-3.38-2.47-6.73-5.02-10.07-7.65-1.49-1.17-2.98-2.35-4.46-3.55-.7-.56-1.4-1.13-2.09-1.7-1.12-.91-2.23-1.84-3.34-2.77-.85-.71-1.69-1.42-2.53-2.14-.36-.3-.71-.6-1.06-.91-.97-.84-1.95-1.68-2.91-2.53-2.31-2.03-4.6-4.09-6.88-6.2-.94-.86-1.87-1.73-2.8-2.61-1.45-1.35-2.9-2.74-4.33-4.14-.72-.69-1.43-1.39-2.14-2.1-.79-.77-1.59-1.56-2.37-2.36-.53-.53-1.05-1.06-1.57-1.59-1.11-1.11-2.2-2.24-3.28-3.38-.8-.83-1.59-1.66-2.38-2.51-.86-.91-1.71-1.83-2.55-2.75-1.36-1.46-2.7-2.94-4.01-4.43-.89-.99-1.77-1.99-2.65-3-2.19-2.5-4.34-5.04-6.47-7.64-.71-.85-1.41-1.7-2.1-2.56-2.16-2.66-4.29-5.38-6.39-8.14-.77-1-1.53-2.01-2.28-3.03-.67-.88-1.32-1.77-1.97-2.66-.48-.66-.97-1.33-1.46-2.01-2.79-3.85-5.52-7.8-8.18-11.83-.84-1.26-1.67-2.53-2.5-3.81-.53-.82-1.06-1.65-1.58-2.49-.5-.78-.99-1.56-1.49-2.35-1.7-2.73-3.38-5.5-5.02-8.32-.7-1.18-1.39-2.38-2.08-3.58-.07-.12-.14-.24-.2-.36-.81-1.4-1.6-2.82-2.39-4.24-35.32-63.86-53.64-113.52-56-151.84-1.9-30.77,6.77-49.63,15.94-69.59,3.23-7.03,6.57-14.29,9.37-21.98,5.17-14.17,6.26-29.47,3.17-44.25l-.07-.32L45.71,148.6c-1.91-9.53.03-19.27,5.34-26.77,4.08-5.75,9.68-9.36,15.77-10.16l1.81-.24,1.74-.52c2.19-.66,221.9-65.91,498.5-65.91,144.28,0,273.78,17.91,357,32.94,90.36,16.32,147.25,32.85,147.8,33.02l1.67.49,1.73.22c6.09.8,11.69,4.41,15.77,10.16,5.31,7.5,7.25,17.24,5.33,26.77l-152.47,636.49-.14.64c-3.09,14.78-2,30.09,3.16,44.25,2.81,7.69,6.14,14.95,9.37,21.98,9.18,19.96,17.85,38.82,15.95,69.59-2.37,38.32-20.69,87.98-56,151.84-.69,1.25-1.38,2.49-2.09,3.72-.74,1.32-1.5,2.63-2.26,3.93-.66,1.14-1.34,2.28-2.01,3.41-1.3,2.17-2.62,4.32-3.95,6.45-.5.8-1.01,1.6-1.52,2.4-.59.93-1.18,1.85-1.78,2.77-2.12,3.27-4.3,6.51-6.52,9.7-.64.93-1.29,1.85-1.94,2.76-2.26,3.19-4.57,6.34-6.93,9.45-.52.69-1.05,1.38-1.58,2.07-2.69,3.49-5.44,6.94-8.26,10.33-1.36,1.65-2.74,3.29-4.15,4.91-4.37,5.1-8.89,10.07-13.56,14.93-.61.64-1.23,1.28-1.85,1.91-2.65,2.72-5.34,5.4-8.09,8.05-.99.95-1.98,1.9-2.98,2.84-.65.61-1.29,1.21-1.94,1.82-.42.39-.84.78-1.27,1.17-4.11,3.79-8.32,7.49-12.62,11.11-1.09.91-2.18,1.82-3.28,2.73-1.09.89-2.18,1.79-3.29,2.67,0,.01,0,.02-.03.03-1.1.89-2.22,1.77-3.33,2.65-1.15.9-2.3,1.8-3.46,2.68-1.03.8-2.07,1.58-3.11,2.36-2.49,1.88-5.01,3.73-7.56,5.55-1.05.76-2.1,1.5-3.16,2.24-.9.64-1.81,1.27-2.72,1.89-2.46,1.7-4.95,3.37-7.47,5.02-.78.52-1.56,1.03-2.35,1.53-4.93,3.2-9.96,6.3-15.09,9.31-.99.59-1.99,1.17-2.99,1.74-2,1.16-4,2.3-6.03,3.42v50.72c29.03-14.35,55.92-31.12,80.3-50.13,44.74-34.88,81.16-77.4,108.24-126.36,38.63-69.83,58.75-125.71,61.54-170.84,2.6-42.07-9.91-69.29-19.97-91.16-2.98-6.5-5.8-12.63-7.98-18.6-2.22-6.1-2.73-12.96-1.45-19.35l152.47-636.49.14-.63c4.57-21.84-.03-44.55-12.62-62.3Z"/>
      <path d="M974.08,198.61v60.26c0,7.93-8.1,13.27-15.38,10.15-47.43-20.36-198.93-78.78-375.4-78.78-178.94,0-347.78,60.07-397.99,79.61-7.23,2.82-15.03-2.53-15.03-10.29v-60.53c0-4.28,2.46-8.17,6.33-9.99,32.57-15.3,188.24-82.61,406.69-82.61s355.65,66.82,384.94,82.44c3.6,1.92,5.85,5.66,5.85,9.74Z" style="fill: #00acee;"/>
      <g>
        <g>
          <path d="M789.17,1135.21c24.12-39.33,37.18-84.93,37.18-132.74,0-36.82-7.69-72.31-22.86-105.49-.51-1.84-1.08-3.56-1.69-5.12l-.13-.32-.15-.31c-18.44-37.86-46.31-70.7-80.95-95.51,49.8-54.14,81.46-109.89,96.52-169.97h120.52c-3.8,49.42-18.34,95.25-44.33,139.84-.66.98-3.49,5.22-6.84,11.25-6.19,9.82-13.02,19.68-20.31,29.32l-3.7,4.89,59.66,86.78c3.71,76.45-69.66,175.76-132.92,237.4Z" style="fill: #00acee;"/>
          <path d="M928.29,634.23c-4.71,44.56-18.6,86.21-42.22,126.81-.97,1.45-3.71,5.62-6.96,11.43-6.03,9.55-12.68,19.15-19.77,28.53l-7.4,9.78,6.95,10.11,54.79,79.69c.59,22.96-6.14,49.72-20.05,79.66-13.1,28.19-32.79,59.2-56.94,89.68-5.48,6.91-11.06,13.64-16.69,20.16,9.73-27.69,14.84-57.22,14.84-87.61,0-37.83-7.86-74.3-23.36-108.43-.54-1.87-1.14-3.64-1.78-5.28l-.25-.64-.3-.62c-17.69-36.31-43.75-68.15-76.01-93.02,45.43-51.09,75.19-103.77,90.5-160.24h104.64M946.66,617.23h-136.28c-15.7,68.48-52.65,127.26-102.77,179.88,36.71,24.21,66.87,58,86.26,97.83.6,1.53,1.13,3.18,1.6,4.95,14.37,31.21,22.37,65.96,22.37,102.58,0,79.62-37.87,150.41-96.56,195.33,56.47-24.07,217.11-187.83,209.14-302.86l-57.53-83.68c7.42-9.81,14.38-19.84,20.84-30.11,3.39-6.11,6.24-10.34,6.67-10.96.04-.06.06-.08.06-.08,26.72-45.77,43.33-96.19,46.19-152.87h0Z" style="fill: #1394bc;"/>
        </g>
        <g>
          <path d="M358.6,1134.99c-63.26-61.64-136.63-160.95-132.92-237.4l59.66-86.78-3.7-4.89c-7.29-9.64-14.12-19.51-20.31-29.32-3.34-6-6.17-10.25-6.84-11.24-25.99-44.59-40.53-90.43-44.33-139.84h120.52c15.06,60.09,46.72,115.84,96.51,169.97-34.64,24.81-62.51,57.65-80.95,95.51l-.15.31-.12.32c-.61,1.57-1.18,3.29-1.7,5.12-15.17,33.18-22.86,68.67-22.86,105.49,0,47.82,13.06,93.42,37.18,132.74Z" style="fill: #00acee;"/>
          <path d="M324.11,634.01c15.31,56.46,45.07,109.15,90.5,160.24-32.26,24.88-58.32,56.71-76.01,93.02l-.3.62-.25.64c-.64,1.64-1.24,3.41-1.78,5.27-15.5,34.13-23.36,70.61-23.36,108.44,0,30.39,5.11,59.93,14.84,87.61-5.63-6.52-11.21-13.25-16.69-20.16-24.15-30.48-43.84-61.49-56.94-89.68-13.91-29.93-20.64-56.7-20.05-79.66l54.79-79.7,6.95-10.11-7.4-9.78c-7.1-9.38-13.75-18.98-19.77-28.53-3.25-5.82-5.98-9.99-6.96-11.43-23.62-40.6-37.51-82.26-42.22-126.81h104.64M337.38,617.01h-136.27c2.86,56.68,19.47,107.09,46.19,152.87,0,0,.01.03.06.08.43.63,3.28,4.85,6.67,10.96,6.46,10.27,13.42,20.3,20.84,30.11l-57.53,83.68c-7.96,115.03,152.67,278.79,209.14,302.86-58.7-44.92-96.56-115.71-96.56-195.33,0-36.61,8-71.37,22.37-102.58.47-1.76,1-3.42,1.6-4.95,19.4-39.82,49.55-73.62,86.26-97.83-50.12-52.62-87.07-111.4-102.77-179.88h0Z" style="fill: #1394bc;"/>
        </g>
      </g>
      <path d="M575.53,115.59l8.17,18.5c.48,1.08,1.5,1.82,2.67,1.94l20.12,2.05c3.39.35,4.75,4.55,2.22,6.82l-15.07,13.48c-.88.79-1.27,1.99-1.02,3.14l4.27,19.77c.72,3.33-2.86,5.93-5.8,4.22l-17.48-10.17c-1.02-.59-2.28-.59-3.3,0l-17.48,10.17c-2.94,1.71-6.52-.89-5.8-4.22l4.27-19.77c.25-1.15-.14-2.35-1.02-3.14l-15.07-13.48c-2.54-2.27-1.17-6.48,2.22-6.82l20.12-2.05c1.18-.12,2.2-.86,2.67-1.94l8.17-18.5c1.38-3.12,5.8-3.12,7.17,0Z" style="fill: #fff;"/>
      <path d="M405.04,127.69l8.17,18.5c.48,1.08,1.5,1.82,2.67,1.94l20.12,2.05c3.39.35,4.75,4.55,2.22,6.82l-15.07,13.48c-.88.79-1.27,1.99-1.02,3.14l4.27,19.77c.72,3.33-2.86,5.93-5.8,4.22l-17.48-10.17c-1.02-.59-2.28-.59-3.3,0l-17.48,10.17c-2.94,1.71-6.52-.89-5.8-4.22l4.27-19.77c.25-1.15-.14-2.35-1.02-3.14l-15.07-13.48c-2.54-2.27-1.17-6.48,2.22-6.82l20.12-2.05c1.18-.12,2.2-.86,2.67-1.94l8.17-18.5c1.38-3.12,5.8-3.12,7.17,0Z" style="fill: #fff;"/>
      <path d="M234.55,172.08l8.17,18.5c.48,1.08,1.5,1.82,2.67,1.94l20.12,2.05c3.39.35,4.75,4.55,2.22,6.82l-15.07,13.48c-.88.79-1.27,1.99-1.02,3.14l4.27,19.77c.72,3.33-2.86,5.93-5.8,4.22l-17.48-10.17c-1.02-.59-2.28-.59-3.3,0l-17.48,10.17c-2.94,1.71-6.52-.89-5.8-4.22l4.27-19.77c.25-1.15-.14-2.35-1.02-3.14l-15.07-13.48c-2.54-2.27-1.17-6.48,2.22-6.82l20.12-2.05c1.18-.12,2.2-.86,2.67-1.94l8.17-18.5c1.38-3.12,5.8-3.12,7.17,0Z" style="fill: #fff;"/>
      <path d="M738.85,125.62l-8.17,18.5c-.48,1.08-1.5,1.82-2.67,1.94l-20.12,2.05c-3.39.35-4.75,4.55-2.22,6.82l15.07,13.48c.88.79,1.27,1.99,1.02,3.14l-4.27,19.77c-.72,3.33,2.86,5.93,5.8,4.22l17.48-10.17c1.02-.59,2.28-.59,3.3,0l17.48,10.17c2.94,1.71,6.52-.89,5.8-4.22l-4.27-19.77c-.25-1.15.14-2.35,1.02-3.14l15.07-13.48c2.54-2.27,1.17-6.48-2.22-6.82l-20.12-2.05c-1.18-.12-2.2-.86-2.67-1.94l-8.17-18.5c-1.38-3.12-5.8-3.12-7.17,0Z" style="fill: #fff;"/>
      <path d="M332.21,307.83l-6.07-29.08c-.73.15-1.44.29-2.14.43-1.61.31-3.17.62-4.69.93-1.51.31-2.99.61-4.44.9-1.45.3-2.88.59-4.28.89-1.41.29-2.8.58-4.19.88-1.38.29-2.76.59-4.14.89-1.39.29-2.78.6-4.19.9-1.4.31-2.82.63-4.27.95s-2.92.65-4.43.99-3.06.7-4.66,1.06c-1.59.37-3.22.75-4.91,1.15l-30.14,153.34-21.14,102.01-4.62,21.59,35-.28,7.42-39.48,67.83-2.37,7.33-.23,7.48,41.48,35.19-.18-51.94-256.77ZM287.79,495.7l-16.42,1.19,22.19-125.74,9.1-85.81,10.13,85.35,22.66,121.89-47.66,3.12Z"/>
      <path d="M387.9,496.11l-48.55-237.18-8.19,1.55c-1.87.35-3.67.7-5.41,1.03-1.74.34-3.42.67-5.04.99-1.63.32-3.21.63-4.75.94-1.54.31-3.04.62-4.51.92-1.47.3-2.92.6-4.34.9-1.43.3-2.84.59-4.23.89-1.41.3-2.81.6-4.21.9-1.4.3-2.81.6-4.23.92-1.42.31-2.86.63-4.33.95-1.47.33-2.96.66-4.5,1.01-1.53.35-3.1.71-4.71,1.08-1.62.37-3.29.76-5.02,1.16-1.73.41-3.51.83-5.37,1.27l-5.35,1.28-10.86,56.43-25.78,129.52-25.73,122.18,70.2-.58,7.54-39.9,46.83-1.62,7.39,41.11,70.04-.35-16.89-85.4ZM348.96,564.78l-7.48-41.48-7.33.23-67.83,2.37-7.42,39.48-35,.28,4.62-21.59,21.14-102.01,30.14-153.34c1.69-.4,3.32-.78,4.91-1.15,1.6-.36,3.15-.72,4.66-1.06s2.98-.67,4.43-.99,2.87-.64,4.27-.95c1.41-.3,2.8-.61,4.19-.9,1.38-.3,2.76-.6,4.14-.89,1.39-.3,2.78-.59,4.19-.88,1.4-.3,2.83-.59,4.28-.89,1.45-.29,2.93-.59,4.44-.9,1.52-.31,3.08-.62,4.69-.93.7-.14,1.41-.28,2.14-.43l6.07,29.08,51.94,256.77-35.19.18Z"/>
      <path d="M312.79,370.69l-10.13-85.35-9.1,85.81-22.19,125.74,16.42-1.19,47.66-3.12-22.66-121.89ZM315.27,476.81l-23.31,1.55,11.52-65.11,11.79,63.56Z"/>
      <path d="M559.12,480.33c0-1.65-.05-3.28-.14-4.86-.1-1.57-.24-3.13-.42-4.63-.19-1.49-.42-2.98-.7-4.42-.27-1.42-.59-2.84-.95-4.22-.35-1.35-.75-2.71-1.2-4.03-.44-1.31-.92-2.61-1.45-3.87-.52-1.26-1.09-2.51-1.68-3.71-.6-1.21-1.25-2.41-1.93-3.57-.67-1.15-1.39-2.3-2.16-3.44-.76-1.12-1.56-2.24-2.4-3.32-.84-1.08-1.73-2.17-2.64-3.21l-39.29-44.04-24.39-26.71-3.35-3.62c-1.13-1.22-2.28-2.45-3.44-3.71l-3.58-3.84c-1.2-1.29-2.44-2.61-3.69-3.95-1.26-1.35-2.54-2.71-3.85-4.1-2.75-2.97-3.92-5.9-3.93-9.84l-.1-31.75c-.02-5.86,3.8-10.07,9.52-10.46,1.9-.13,3.71-.25,5.44-.37,1.74-.11,3.4-.22,5-.32,1.59-.1,3.13-.19,4.64-.28,1.5-.09,2.97-.17,4.42-.26,1.45-.08,2.88-.16,4.31-.23,1.43-.08,2.86-.16,4.31-.23,1.44-.07,2.91-.15,4.42-.22,1.5-.07,3.04-.14,4.64-.21,1.6-.07,3.26-.15,5-.22,1.73-.07,3.54-.14,5.45-.22,2.78-.1,5.39.87,7.35,2.75,1.99,1.92,3.09,4.59,3.1,7.53l.06,34.47c.49-.01.97-.02,1.45-.04,1.57-.04,3.09-.07,4.58-.11,1.48-.03,2.92-.06,4.34-.09,1.42-.03,2.82-.06,4.21-.09,1.38-.02,2.77-.05,4.16-.07,1.39-.02,2.79-.04,4.21-.06l8.92-.11c.57,0,1.15-.01,1.73-.01v-42.38c-.01-1.68-.07-3.35-.21-4.96-.13-1.59-.33-3.16-.58-4.67-.26-1.49-.58-2.96-.95-4.37-.37-1.39-.8-2.75-1.28-4.05-.48-1.29-1.02-2.54-1.6-3.72-.57-1.17-1.2-2.31-1.87-3.38-.67-1.06-1.38-2.08-2.14-3.03-.75-.95-1.55-1.85-2.38-2.69-.83-.83-1.71-1.62-2.61-2.33-.91-.72-1.87-1.39-2.85-1.99s-2.01-1.15-3.06-1.62c-1.06-.49-2.17-.92-3.29-1.27-1.15-.37-2.34-.67-3.55-.9-1.23-.23-2.51-.4-3.79-.49-1.33-.1-2.69-.12-4.07-.07-1.89.07-3.71.15-5.47.22-1.77.08-3.48.15-5.13.23-1.66.08-3.26.16-4.83.24-1.58.08-3.11.16-4.62.24-1.5.08-2.97.16-4.43.24-1.45.09-2.88.17-4.31.26-1.43.08-2.84.17-4.25.26-1.42.09-2.84.19-4.26.28-1.43.1-2.86.2-4.32.3-1.45.1-2.92.21-4.42.32-1.51.11-3.03.23-4.6.35-1.57.12-3.18.25-4.83.39-1.66.13-3.36.27-5.12.42-1.76.16-3.58.31-5.46.48-1.38.13-2.76.33-4.08.59-1.3.26-2.6.59-3.84.99-1.23.39-2.44.84-3.61,1.36-1.15.51-2.28,1.09-3.37,1.72-1.08.62-2.13,1.32-3.14,2.06-1,.74-1.98,1.54-2.91,2.39-.93.85-1.83,1.76-2.67,2.71-.85.96-1.66,1.97-2.42,3.02-.76,1.06-1.49,2.17-2.15,3.32-.67,1.15-1.3,2.36-1.87,3.6-.57,1.25-1.1,2.55-1.57,3.87-.47,1.34-.89,2.74-1.25,4.14-.36,1.42-.66,2.89-.91,4.37-.24,1.51-.43,3.06-.55,4.61-.12,1.59-.18,3.22-.17,4.83l.14,33.51c.01,1.6.06,3.18.16,4.7.09,1.5.23,3,.42,4.45.18,1.42.41,2.84.67,4.2.26,1.34.57,2.67.92,3.97.35,1.28.74,2.54,1.17,3.76.42,1.21.9,2.42,1.41,3.58.5,1.15,1.06,2.3,1.64,3.4.59,1.1,1.22,2.2,1.9,3.27.67,1.06,1.39,2.11,2.14,3.13.76,1.01,1.56,2.03,2.41,3.02.84.97,1.74,1.96,2.68,2.92l.07.07c1.32,1.38,2.6,2.73,3.87,4.06,1.26,1.33,2.5,2.64,3.72,3.92l7.05,7.48c1.13,1.21,2.25,2.41,3.36,3.59l3.25,3.48c1.08,1.16,2.14,2.3,3.19,3.43l15.1,16.35c.99,1.07,1.97,2.15,2.96,3.22.98,1.07,1.97,2.15,2.95,3.24l25.37,28.05,11.68,13.09.43.73c.1.17.2.33.3.49.86,1.39,2.47,3.99,2.48,7.94l.08,41.81c.01,5.58-4.58,10.34-10.03,10.39l-47.03.58c-2.71.06-5.3-.96-7.21-2.83-1.95-1.92-3.03-4.57-3.04-7.47l-.11-34.52-33.31,1.12.17,41.17c.01,1.65.08,3.29.22,4.88.13,1.55.33,3.1.59,4.6.25,1.46.56,2.9.93,4.28.36,1.35.79,2.69,1.26,3.96.47,1.25.99,2.48,1.56,3.64.56,1.14,1.18,2.26,1.84,3.31.65,1.04,1.35,2.04,2.09,2.98.74.93,1.52,1.82,2.34,2.65.81.83,1.68,1.61,2.58,2.33.89.72,1.83,1.39,2.8,2,.97.61,1.99,1.17,3.04,1.67s2.15.95,3.27,1.33c1.14.38,2.32.71,3.53.98,1.22.26,2.49.47,3.78.6,1.29.13,2.62.2,3.95.2h.1l65.9-.12c1.37,0,2.73-.07,4.04-.22,1.29-.14,2.56-.35,3.78-.62,1.21-.27,2.39-.61,3.53-1.01,1.12-.39,2.23-.86,3.29-1.37,1.05-.51,2.08-1.09,3.06-1.73.97-.62,1.92-1.32,2.83-2.07.9-.74,1.78-1.55,2.61-2.41.82-.86,1.62-1.79,2.37-2.75.75-.98,1.47-2.03,2.13-3.11.66-1.09,1.29-2.25,1.87-3.46.57-1.2,1.11-2.48,1.58-3.79.48-1.33.91-2.71,1.28-4.12.37-1.45.69-2.95.94-4.46.26-1.55.45-3.15.58-4.77.14-1.66.2-3.36.2-5.06v-43.84Z"/>
      <path d="M576.12,480.32c0-1.98-.06-3.96-.17-5.87-.12-1.93-.29-3.85-.52-5.7s-.52-3.71-.87-5.51c-.34-1.79-.74-3.58-1.2-5.33-.45-1.73-.97-3.46-1.53-5.15-.56-1.67-1.19-3.34-1.86-4.97-.67-1.62-1.4-3.22-2.17-4.76-.77-1.55-1.6-3.1-2.46-4.58-.86-1.46-1.79-2.94-2.76-4.38-.96-1.42-1.98-2.83-3.04-4.2-1.04-1.35-2.15-2.7-3.31-4.04l-33.53-37.64-33.8-37.05c-1.14-1.23-2.3-2.48-3.47-3.74l-3.59-3.86c-1.22-1.31-2.46-2.63-3.72-3.98-1.06-1.13-2.13-2.27-3.19-3.41l-.08-24.59c1.37-.09,2.7-.17,3.99-.25,1.59-.1,3.11-.19,4.6-.28,1.49-.09,2.94-.17,4.37-.25,1.43-.08,2.84-.16,4.26-.24,1.41-.07,2.82-.15,4.26-.22,1.43-.07,2.88-.14,4.37-.22,1.49-.07,3.01-.14,4.6-.21,1.02-.05,2.07-.09,3.14-.14l.08,45,8.76-.28c1.82-.06,3.57-.11,5.25-.16,1.68-.05,3.29-.09,4.85-.13,1.55-.04,3.06-.08,4.53-.11,1.47-.04,2.9-.07,4.31-.1,1.4-.03,2.79-.05,4.17-.08,1.37-.02,2.74-.05,4.12-.07,1.37-.02,2.76-.04,4.17-.06l8.83-.11c1.56-.01,3.17-.02,4.86-.03,1.68-.02,3.43-.02,5.26-.03l8.47-.03-.02-59.3c0-2.16-.08-4.3-.26-6.36-.17-2.09-.43-4.15-.77-6.13-.34-2-.77-3.98-1.27-5.88-.51-1.9-1.11-3.79-1.77-5.59-.68-1.82-1.44-3.59-2.27-5.29s-1.75-3.36-2.74-4.93c-.99-1.58-2.07-3.11-3.21-4.55-1.14-1.45-2.38-2.84-3.67-4.14-1.3-1.3-2.68-2.54-4.1-3.66-1.44-1.14-2.96-2.2-4.51-3.15-1.58-.97-3.22-1.84-4.89-2.6-1.69-.77-3.44-1.45-5.21-2.01-1.79-.57-3.64-1.03-5.51-1.39-1.88-.36-3.81-.61-5.75-.75s-3.93-.17-5.94-.1c-1.92.08-3.76.15-5.54.23-1.79.07-3.52.15-5.2.23-1.68.08-3.31.16-4.9.24-1.59.08-3.14.16-4.67.24-1.52.08-3.01.17-4.49.25-1.48.09-2.93.17-4.37.26-1.45.09-2.88.18-4.31.27-1.44.09-2.87.18-4.32.28-1.44.1-2.89.2-4.37.3-1.47.11-2.96.22-4.48.33-1.52.11-3.07.23-4.66.35-1.59.13-3.22.26-4.9.39-1.67.14-3.4.29-5.18.44-1.78.15-3.63.31-5.54.48-1.98.18-3.97.47-5.89.85-1.9.38-3.8.87-5.63,1.45-1.82.57-3.62,1.26-5.36,2.02-1.71.76-3.41,1.63-5.03,2.57-1.6.93-3.18,1.96-4.68,3.07-1.48,1.09-2.93,2.28-4.3,3.54-1.37,1.24-2.68,2.57-3.91,3.96-1.23,1.38-2.41,2.85-3.5,4.37-1.08,1.5-2.11,3.09-3.06,4.71-.94,1.62-1.82,3.31-2.61,5.04-.8,1.73-1.52,3.52-2.16,5.34-.64,1.82-1.21,3.7-1.69,5.59-.48,1.9-.89,3.86-1.21,5.83-.33,1.97-.57,4-.73,6.03-.16,2.05-.23,4.15-.22,6.21l.14,33.52c.01,1.93.08,3.85.19,5.69.12,1.85.29,3.71.52,5.52.23,1.8.52,3.59.86,5.32.34,1.73.74,3.46,1.19,5.14.46,1.68.97,3.35,1.54,4.96.56,1.61,1.19,3.21,1.87,4.77.68,1.55,1.43,3.08,2.21,4.56.78,1.47,1.64,2.94,2.54,4.37.89,1.41,1.85,2.81,2.85,4.16.99,1.34,2.05,2.67,3.16,3.96,1.07,1.26,2.21,2.51,3.4,3.72,1.29,1.35,2.56,2.68,3.8,3.99,1.26,1.32,2.49,2.62,3.7,3.9l7.01,7.43c1.13,1.2,2.24,2.39,3.33,3.56l21.44,23.14c.98,1.07,1.95,2.13,2.94,3.21.97,1.07,1.95,2.14,2.94,3.22l2.96,3.25,32.85,36.51.06,34.35-33.31.4-.15-45.19-18.82.53-48.51,1.74.25,57.57c.01,2.11.11,4.22.28,6.26.17,2.03.44,4.06.77,6.04.34,1.96.77,3.9,1.27,5.78.5,1.87,1.09,3.72,1.75,5.49.66,1.78,1.41,3.53,2.22,5.2.82,1.67,1.73,3.3,2.7,4.84.97,1.57,2.03,3.08,3.15,4.49,1.12,1.42,2.33,2.8,3.59,4.08,1.27,1.28,2.62,2.5,4.02,3.63,1.41,1.13,2.89,2.19,4.41,3.14,1.53.96,3.14,1.85,4.77,2.62,1.65.79,3.37,1.49,5.11,2.08,1.74.59,3.56,1.1,5.39,1.5,1.83.4,3.73.7,5.64.9,1.87.19,3.79.29,5.72.29h.13l65.88-.12c1.97,0,3.95-.11,5.87-.32,1.92-.21,3.82-.52,5.66-.94,1.84-.41,3.67-.93,5.41-1.55,1.75-.61,3.48-1.33,5.13-2.13,1.65-.81,3.27-1.72,4.81-2.71,1.53-.99,3.02-2.07,4.44-3.24,1.4-1.16,2.75-2.41,4.04-3.74,1.26-1.32,2.48-2.73,3.6-4.19,1.12-1.46,2.19-3.01,3.17-4.61.96-1.58,1.87-3.26,2.7-4.99.81-1.71,1.56-3.5,2.23-5.33.66-1.83,1.24-3.73,1.74-5.65.5-1.93.93-3.93,1.26-5.93.33-2.01.59-4.1.76-6.2.17-2.11.25-4.27.25-6.43v-43.84ZM558.93,529.23c-.13,1.62-.32,3.22-.58,4.77-.25,1.51-.57,3.01-.94,4.46-.37,1.41-.8,2.79-1.28,4.12-.47,1.31-1.01,2.59-1.58,3.79-.58,1.21-1.21,2.37-1.87,3.46-.66,1.08-1.38,2.13-2.13,3.11-.75.96-1.55,1.89-2.37,2.75-.83.86-1.71,1.67-2.61,2.41-.91.75-1.86,1.45-2.83,2.07-.98.64-2.01,1.22-3.06,1.73-1.06.51-2.17.98-3.29,1.37-1.14.4-2.32.74-3.53,1.01-1.22.27-2.49.48-3.78.62-1.31.15-2.67.22-4.04.22l-65.9.12h-.1c-1.33,0-2.66-.07-3.95-.2-1.29-.13-2.56-.34-3.78-.6-1.21-.27-2.39-.6-3.53-.98-1.12-.38-2.22-.83-3.27-1.33s-2.07-1.06-3.04-1.67c-.97-.61-1.91-1.28-2.8-2-.9-.72-1.77-1.5-2.58-2.33-.82-.83-1.6-1.72-2.34-2.65-.74-.94-1.44-1.94-2.09-2.98-.66-1.05-1.28-2.17-1.84-3.31-.57-1.16-1.09-2.39-1.56-3.64-.47-1.27-.9-2.61-1.26-3.96-.37-1.38-.68-2.82-.93-4.28-.26-1.5-.46-3.05-.59-4.6-.14-1.59-.21-3.23-.22-4.88l-.17-41.17,33.31-1.12.11,34.52c.01,2.9,1.09,5.55,3.04,7.47,1.91,1.87,4.5,2.89,7.21,2.83l47.03-.58c5.45-.05,10.04-4.81,10.03-10.39l-.08-41.81c-.01-3.95-1.62-6.55-2.48-7.94-.1-.16-.2-.32-.3-.49l-.43-.73-11.68-13.09-25.37-28.05c-.98-1.09-1.97-2.17-2.95-3.24-.99-1.07-1.97-2.15-2.96-3.22l-15.1-16.35c-1.05-1.13-2.11-2.27-3.19-3.43l-3.25-3.48c-1.11-1.18-2.23-2.38-3.36-3.59l-7.05-7.48c-1.22-1.28-2.46-2.59-3.72-3.92-1.27-1.33-2.55-2.68-3.87-4.06l-.07-.07c-.94-.96-1.84-1.95-2.68-2.92-.85-.99-1.65-2.01-2.41-3.02-.75-1.02-1.47-2.07-2.14-3.13-.68-1.07-1.31-2.17-1.9-3.27-.58-1.1-1.14-2.25-1.64-3.4-.51-1.16-.99-2.37-1.41-3.58-.43-1.22-.82-2.48-1.17-3.76-.35-1.3-.66-2.63-.92-3.97-.26-1.36-.49-2.78-.67-4.2-.19-1.45-.33-2.95-.42-4.45-.1-1.52-.15-3.1-.16-4.7l-.14-33.51c-.01-1.61.05-3.24.17-4.83.12-1.55.31-3.1.55-4.61.25-1.48.55-2.95.91-4.37.36-1.4.78-2.8,1.25-4.14.47-1.32,1-2.62,1.57-3.87.57-1.24,1.2-2.45,1.87-3.6.66-1.15,1.39-2.26,2.15-3.32.76-1.05,1.57-2.06,2.42-3.02.84-.95,1.74-1.86,2.67-2.71.93-.85,1.91-1.65,2.91-2.39,1.01-.74,2.06-1.44,3.14-2.06,1.09-.63,2.22-1.21,3.37-1.72,1.17-.52,2.38-.97,3.61-1.36,1.24-.4,2.54-.73,3.84-.99,1.32-.26,2.7-.46,4.08-.59,1.88-.17,3.7-.32,5.46-.48,1.76-.15,3.46-.29,5.12-.42,1.65-.14,3.26-.27,4.83-.39,1.57-.12,3.09-.24,4.6-.35,1.5-.11,2.97-.22,4.42-.32,1.46-.1,2.89-.2,4.32-.3,1.42-.09,2.84-.19,4.26-.28,1.41-.09,2.82-.18,4.25-.26,1.43-.09,2.86-.17,4.31-.26,1.46-.08,2.93-.16,4.43-.24,1.51-.08,3.04-.16,4.62-.24,1.57-.08,3.17-.16,4.83-.24,1.65-.08,3.36-.15,5.13-.23,1.76-.07,3.58-.15,5.47-.22,1.38-.05,2.74-.03,4.07.07,1.28.09,2.56.26,3.79.49,1.21.23,2.4.53,3.55.9,1.12.35,2.23.78,3.29,1.27,1.05.47,2.08,1.02,3.06,1.62s1.94,1.27,2.85,1.99c.9.71,1.78,1.5,2.61,2.33.83.84,1.63,1.74,2.38,2.69.76.95,1.47,1.97,2.14,3.03.67,1.07,1.3,2.21,1.87,3.38.58,1.18,1.12,2.43,1.6,3.72.48,1.3.91,2.66,1.28,4.05.37,1.41.69,2.88.95,4.37.25,1.51.45,3.08.58,4.67.14,1.61.2,3.28.2,4.96v42.38c-.57,0-1.15.01-1.72.01l-8.92.11c-1.42.02-2.82.04-4.21.06-1.39.02-2.78.05-4.16.07-1.39.03-2.79.06-4.21.09-1.42.03-2.86.06-4.34.09-1.49.04-3.01.07-4.58.11-.48.02-.96.03-1.45.04l-.06-34.47c-.01-2.94-1.11-5.61-3.1-7.53-1.96-1.88-4.57-2.85-7.35-2.75-1.91.08-3.72.15-5.45.22-1.74.07-3.4.15-5,.22-1.6.07-3.14.14-4.64.21-1.51.07-2.98.15-4.42.22-1.45.07-2.88.15-4.31.23-1.43.07-2.86.15-4.31.23-1.45.09-2.92.17-4.42.26-1.51.09-3.05.18-4.64.28-1.6.1-3.26.21-5,.32-1.73.12-3.54.24-5.44.37-5.72.39-9.54,4.6-9.52,10.46l.1,31.75c.01,3.94,1.18,6.87,3.93,9.84,1.31,1.39,2.59,2.75,3.85,4.1,1.25,1.34,2.49,2.66,3.69,3.95l3.58,3.84c1.16,1.26,2.31,2.49,3.44,3.71l3.35,3.62,24.39,26.71,39.29,44.04c.91,1.04,1.8,2.13,2.64,3.21.84,1.08,1.64,2.2,2.4,3.32.77,1.14,1.49,2.29,2.16,3.44.68,1.16,1.33,2.36,1.93,3.57.59,1.2,1.16,2.45,1.68,3.71.53,1.26,1.01,2.56,1.45,3.87.45,1.32.85,2.68,1.2,4.03.36,1.38.68,2.8.95,4.22.28,1.44.51,2.93.7,4.42.18,1.5.32,3.06.42,4.63.09,1.58.14,3.21.14,4.86v43.84c.01,1.7-.05,3.4-.19,5.06Z"/>
      <path d="M654.74,293.44c1.92.1,3.78.2,5.59.3,1.81.1,3.57.2,5.28.3,1.72.1,3.39.21,5.03.31,1.64.1,3.24.2,4.81.31,1.57.1,3.11.2,4.62.31,1.52.1,3.01.2,4.49.31,1.47.11,2.94.21,4.39.32l4.32.33c1.44.11,2.87.22,4.31.34,1.43.11,2.87.23,4.32.35s2.91.24,4.39.37c1.47.12,2.96.25,4.48.39,1.51.13,3.05.27,4.61.41,1.57.15,3.17.3,4.8.45,1.63.15,3.3.32,5.02.48.49.05.98.1,1.48.15l.15-35.11c-1.25-.14-2.48-.29-3.7-.43-1.8-.21-3.57-.41-5.31-.61-1.74-.19-3.46-.38-5.15-.56-1.69-.18-3.35-.36-4.99-.53-1.65-.17-3.27-.34-4.87-.5-1.6-.16-3.18-.31-4.74-.46-1.57-.15-3.11-.3-4.64-.44-1.54-.14-3.06-.28-4.56-.42-1.51-.13-3-.26-4.49-.39-1.48-.13-2.96-.25-4.42-.37-1.48-.12-2.94-.24-4.4-.35-1.46-.12-2.91-.23-4.36-.34-1.47-.11-2.92-.22-4.37-.32-1.45-.11-2.91-.21-4.37-.31-1.46-.1-2.92-.2-4.39-.29-1.48-.1-2.95-.19-4.44-.28-1.49-.1-2.99-.18-4.5-.27-1.5-.09-3.03-.18-4.57-.26-1.53-.08-3.08-.17-4.64-.24-1.57-.09-3.16-.16-4.76-.24-1.61-.07-3.23-.15-4.88-.22-1.65-.07-3.32-.14-5.02-.21-1.69-.07-3.41-.13-5.17-.19-1.74-.06-3.52-.13-5.33-.18-.85-.03-1.7-.05-2.56-.08l-.29,308.91,113.61.26.16-35.2-66.51-1.17-13.94-.17.27-106.95,45.4,1.53,13.57.6c.5.02,1.01.05,1.52.07l.14-33.24-2.4-.15c-1.6-.1-3.17-.2-4.69-.29l-4.48-.26c-1.46-.08-2.89-.16-4.3-.24l-21.39-1.08c-1.53-.07-3.09-.14-4.71-.21-1.62-.07-3.28-.13-5.01-.2-1.72-.07-3.51-.14-5.36-.21l-8.2-.31.23-93.98,8.92.46Z"/>
      <path d="M664.61,311.01c1.7.1,3.35.2,4.97.3,1.62.11,3.2.21,4.75.31,1.56.1,3.08.2,4.58.31,1.5.1,2.98.2,4.44.31,1.46.1,2.9.21,4.34.31,1.43.11,2.86.22,4.27.33,1.42.11,2.84.22,4.26.33,1.42.12,2.85.23,4.28.35,1.43.12,2.87.24,4.33.36,1.46.13,2.94.26,4.44.39s3.02.27,4.57.41c1.54.14,3.12.29,4.74.44,1.61.16,3.26.32,4.96.48,1.69.17,3.42.34,5.21.52,1.78.18,3.61.37,5.5.57l9.35.98.3-68.97-7.48-.93c-1.95-.25-3.88-.48-5.76-.71-1.89-.23-3.74-.44-5.57-.66-1.82-.21-3.61-.41-5.38-.61-1.76-.2-3.5-.39-5.21-.57-1.72-.19-3.4-.37-5.07-.54-1.66-.17-3.3-.34-4.92-.5-1.63-.17-3.23-.32-4.81-.47-1.58-.16-3.15-.31-4.7-.45-1.56-.14-3.09-.28-4.62-.42s-3.04-.27-4.55-.4c-1.5-.13-3-.25-4.48-.37-1.49-.13-2.97-.24-4.46-.36-1.48-.12-2.95-.23-4.42-.34-1.47-.11-2.94-.22-4.43-.33-1.47-.1-2.94-.21-4.42-.31-1.48-.1-2.97-.2-4.45-.3-1.49-.09-2.99-.19-4.49-.28-1.51-.09-3.03-.18-4.56-.27-1.53-.09-3.07-.18-4.63-.26-1.55-.09-3.12-.17-4.71-.25-1.59-.08-3.2-.16-4.82-.24-1.63-.08-3.27-.15-4.94-.22-1.67-.08-3.37-.15-5.09-.22-1.72-.06-3.46-.13-5.23-.19-1.78-.07-3.58-.13-5.41-.18-1.83-.06-3.69-.12-5.59-.17-1.9-.05-3.83-.1-5.8-.14l-8.68-.2-.33,343.31,147.56.35.3-68.87-19.09-.45-61.38-1.08.18-72.66,10.83.37,30.39,1.24c1.61.08,3.27.16,4.99.24l14.25.71.27-67.01-7.96-.54c-1.87-.12-3.67-.24-5.41-.35l-5.04-.32c-1.62-.1-3.2-.2-4.74-.29l-4.5-.26c-1.48-.09-2.92-.17-4.34-.25l-21.57-1.08c-1.54-.07-3.11-.14-4.74-.21-.74-.03-1.5-.06-2.26-.1l.15-59.69c.61.03,1.23.07,1.83.1ZM705.99,423.15c-.51-.02-1.02-.05-1.52-.07l-13.57-.6-45.4-1.53-.27,106.95,13.94.17,66.51,1.17-.16,35.2-113.61-.26.29-308.91c.86.03,1.71.05,2.56.08,1.81.05,3.59.12,5.33.18,1.76.06,3.48.12,5.17.19,1.7.07,3.37.14,5.02.21,1.65.07,3.27.15,4.88.22,1.6.08,3.19.15,4.76.24,1.56.07,3.11.16,4.64.24,1.54.08,3.07.17,4.57.26,1.51.09,3.01.17,4.5.27,1.49.09,2.96.18,4.44.28,1.47.09,2.93.19,4.39.29,1.46.1,2.92.2,4.37.31,1.45.1,2.9.21,4.37.32,1.45.11,2.9.22,4.36.34,1.46.11,2.92.23,4.4.35,1.46.12,2.94.24,4.42.37,1.49.13,2.98.26,4.49.39,1.5.14,3.02.28,4.56.42,1.53.14,3.07.29,4.64.44,1.56.15,3.14.3,4.74.46,1.6.16,3.22.33,4.87.5,1.64.17,3.3.35,4.99.53,1.69.18,3.41.37,5.15.56,1.74.2,3.51.4,5.31.61,1.22.14,2.45.29,3.7.43l-.15,35.11c-.5-.05-.99-.1-1.48-.15-1.72-.16-3.39-.33-5.02-.48-1.63-.15-3.23-.3-4.8-.45-1.56-.14-3.1-.28-4.61-.41-1.52-.14-3.01-.27-4.48-.39-1.48-.13-2.94-.25-4.39-.37s-2.89-.24-4.32-.35c-1.44-.12-2.87-.23-4.31-.34l-4.32-.33c-1.45-.11-2.92-.21-4.39-.32-1.48-.11-2.97-.21-4.49-.31-1.51-.11-3.05-.21-4.62-.31-1.57-.11-3.17-.21-4.81-.31-1.64-.1-3.31-.21-5.03-.31-1.71-.1-3.47-.2-5.28-.3-1.81-.1-3.67-.2-5.59-.3l-8.92-.46-.23,93.98,8.2.31c1.85.07,3.64.14,5.36.21,1.73.07,3.39.13,5.01.2,1.62.07,3.18.14,4.71.21l21.39,1.08c1.41.08,2.84.16,4.3.24l4.48.26c1.52.09,3.09.19,4.69.29l2.4.15-.14,33.24Z"/>
      <path d="M903.68,526.05l-23.37-59.1-18.93-49.55-3.46-9.23,1.7-3.34c.95-1.86,1.88-3.68,2.8-5.47.91-1.78,1.81-3.53,2.69-5.24l5.12-9.9c.82-1.58,1.64-3.14,2.44-4.68l15.62-29.52,2.12-3.96c.71-1.31,1.42-2.62,2.13-3.93l2.13-3.93c.71-1.31,1.43-2.62,2.15-3.94.71-1.31,1.44-2.64,2.16-3.97l2.21-4.01c.74-1.34,1.49-2.7,2.24-4.06.75-1.36,1.52-2.74,2.29-4.13l2.35-4.21c.79-1.42,1.59-2.86,2.41-4.31.81-1.45,1.64-2.92,2.48-4.41.84-1.48,1.69-2.98,2.55-4.5-1.53-.42-3.01-.83-4.46-1.22-1.49-.4-2.95-.8-4.39-1.18-1.45-.38-2.86-.76-4.27-1.13-1.41-.37-2.81-.74-4.22-1.1-1.4-.36-2.82-.73-4.26-1.1s-2.91-.74-4.41-1.12c-1.51-.38-3.05-.76-4.65-1.16-1.28-.32-2.59-.64-3.94-.97-.66,1.26-1.31,2.51-1.95,3.74l-17.55,34.27-17.85,35.9-17.68,36.54-5.09,10.67-16.35,34.5.82-171.74c-1.03-.19-2.04-.37-3.02-.55-1.55-.28-3.04-.54-4.49-.8-1.45-.25-2.87-.5-4.26-.74-1.39-.24-2.76-.47-4.12-.7-1.37-.23-2.73-.46-4.09-.69-1.37-.22-2.74-.45-4.14-.68-1.39-.22-2.81-.45-4.27-.68-1.45-.23-2.94-.47-4.49-.71-.11-.02-.23-.03-.34-.05l-1.4,294.67,33.21.18.29-60.03,20.46-42.49,11.08-22.64,36.3,98.34,10.44,27.33,37.52.3-16.26-39.57Z"/>
      <path d="M940.61,570.93c-.73-1.74-1.45-3.45-2.17-5.14-.71-1.7-1.41-3.37-2.1-5.03l-13.4-32.46-21.73-54.5-24.74-64.58c.36-.71.72-1.41,1.08-2.1.91-1.78,1.8-3.52,2.68-5.22l5.09-9.84c.82-1.58,1.62-3.13,2.42-4.66l4.65-8.88,12.99-24.39c.7-1.31,1.4-2.61,2.11-3.91l2.12-3.9c.7-1.31,1.41-2.61,2.13-3.92.71-1.31,1.43-2.62,2.15-3.94l2.19-3.98c.73-1.33,1.47-2.67,2.23-4.03.75-1.36,1.5-2.72,2.27-4.1l2.33-4.18c.79-1.41,1.58-2.83,2.39-4.28.81-1.44,1.63-2.9,2.47-4.38.83-1.47,1.68-2.97,2.54-4.49.87-1.52,1.74-3.06,2.64-4.63.89-1.56,1.8-3.14,2.72-4.75l5.43-9.44-10.47-2.98c-1.9-.53-3.7-1.04-5.44-1.52-1.73-.49-3.4-.95-5.01-1.39s-3.17-.87-4.69-1.28c-1.52-.41-3-.81-4.45-1.19-1.46-.39-2.89-.77-4.32-1.15-1.43-.37-2.85-.74-4.28-1.12-1.43-.37-2.86-.74-4.32-1.11-1.46-.37-2.94-.75-4.47-1.13-1.52-.39-3.09-.78-4.7-1.18-1.62-.4-3.3-.81-5.05-1.24-1.75-.43-3.56-.87-5.47-1.32l-6.43-1.54-3.07,5.85c-.87,1.66-1.73,3.3-2.57,4.9-.84,1.61-1.67,3.2-2.48,4.77l-7.03,13.59-16.62,32.83-18.43,37.44.53-109.99-6.96-1.3c-1.84-.35-3.59-.67-5.27-.98-1.68-.31-3.3-.6-4.86-.88-1.56-.28-3.07-.55-4.54-.81-1.47-.26-2.91-.51-4.32-.75-1.42-.25-2.81-.48-4.18-.72-1.39-.23-2.76-.46-4.14-.69-1.39-.23-2.78-.46-4.19-.69-1.41-.23-2.85-.46-4.33-.69-1.47-.24-2.98-.47-4.55-.72-1.57-.24-3.19-.49-4.87-.74-1.69-.26-3.45-.52-5.29-.8l-9.7-1.43-1.57,331.31,67.21.36.36-73.25,12.27-25.58,13.4,36.25,23.93,62.91,74.92.61-5.04-11.92ZM772.04,269.96c.11.02.23.03.34.05,1.55.24,3.04.48,4.49.71,1.46.23,2.88.46,4.27.68,1.4.23,2.77.46,4.14.68,1.36.23,2.72.46,4.09.69,1.36.23,2.73.46,4.12.7,1.39.24,2.81.49,4.26.74,1.45.26,2.94.52,4.49.8.98.18,1.99.36,3.02.55l-.82,171.74,16.35-34.5,5.09-10.67,17.68-36.54,17.85-35.9,17.55-34.27c.64-1.23,1.29-2.48,1.95-3.74,1.35.33,2.66.65,3.94.97,1.6.4,3.14.78,4.65,1.16,1.5.38,2.97.75,4.41,1.12s2.86.74,4.26,1.1c1.41.36,2.81.73,4.22,1.1,1.41.37,2.82.75,4.27,1.13,1.44.38,2.9.78,4.39,1.18,1.45.39,2.93.8,4.46,1.22-.86,1.52-1.71,3.02-2.55,4.5-.84,1.49-1.67,2.96-2.48,4.41-.82,1.45-1.62,2.89-2.41,4.31l-2.35,4.21c-.77,1.39-1.54,2.77-2.29,4.13-.75,1.36-1.5,2.72-2.24,4.06l-2.21,4.01c-.72,1.33-1.45,2.66-2.16,3.97-.72,1.32-1.44,2.63-2.15,3.94l-2.13,3.93c-.71,1.31-1.42,2.62-2.13,3.93l-2.12,3.96-15.62,29.52c-.8,1.54-1.62,3.1-2.44,4.68l-5.12,9.9c-.88,1.71-1.78,3.46-2.69,5.24-.92,1.79-1.85,3.61-2.8,5.47l-1.7,3.34,3.46,9.23,18.93,49.55,23.37,59.1,16.26,39.57-37.52-.3-10.44-27.33-36.3-98.34-11.08,22.64-20.46,42.49-.29,60.03-33.21-.18,1.4-294.67Z"/>
      <path d="M909.34,170.55l-8.17,18.5c-.48,1.08-1.5,1.82-2.67,1.94l-20.12,2.05c-3.39.35-4.75,4.55-2.22,6.82l15.07,13.48c.88.79,1.27,1.99,1.02,3.14l-4.27,19.77c-.72,3.33,2.86,5.93,5.8,4.22l17.48-10.17c1.02-.59,2.28-.59,3.3,0l17.48,10.17c2.94,1.71,6.52-.89,5.8-4.22l-4.27-19.77c-.25-1.15.14-2.35,1.02-3.14l15.07-13.48c2.54-2.27,1.17-6.48-2.22-6.82l-20.12-2.05c-1.18-.12-2.2-.86-2.67-1.94l-8.17-18.5c-1.38-3.12-5.8-3.12-7.17,0Z" style="fill: #fff;"/>
      <g>
        <path d="M463.18,680.3c8.11,8.37,14.16,20.77,25.02,25.46,35.66,18.93,67.76-7.89,83.21-42.27,3.01-6.31,5.5-5.47,8.4.51,23.81,46.01,61.89,65.75,99.54,23.41,4.15-4.84,9.8-8,10.13-14.05.22-4.15-3.34-7.26-6.31-5.54-5.61,3.56-2.38,12.22-5.83,17.43-6.16,9.39-16.03,16.47-26.05,18.75-5.72.48-6.49-5.39-6.16-12-.22-6.42,3.71-11.92,5.69-17.13,1.17-3.3-.22-7.92-3.63-8.29-9.21,1.06-2.79,14.49-3.71,21.21-.18,3.23-.07,6.86-.44,9.98-.48,3.49-2.53.66-3.34-1.14-4.26-8.11-4.92-20.66-1.91-30.2,2.27-7.48,7.81-12.88,8.95-20.11,1.25-7.78-.26-16.73-2.16-24.14-1.58-5.61-4.88-1.72-7.04,1.39-4.77,6.75-9.69,14.71-9.76,22.45-.15,5.76,1.36,11.45.92,17.21-.99,11.48-6.05,22.97-14.42,28.62-1.61,1.03-2.75,1.25-3.05.44-.51-1.8,3.67-10.97,4.99-15.26,1.98-5.5,7.81-9.47,6.2-15.74-1.39-5.28-7.85-4.88-9.25.48-.7,2.31-.33,4.95-.04,7.41,1.94,8.88-3.78,30.08-13.35,20.22-8.18-7.78-17.17-19.08-16.77-30.64.29-7.37,5.58-17.17,12.4-18.6,2.27-.51,4.77-.37,6.97-1.1,5.58-1.43,5.06-11.45-.7-12.03-6.31-.15-13.54,8.62-18.09,13.54-1.69,1.87-2.38,2.16-2.05.4,1.8-7.12,4.73-14.82,4.66-22.31.22-9.91-4.07-18.89-8.55-27.15-2.6-4.4-4.88.15-6.35,3.05-7.48,12.8-8.84,27.77-3.82,41.61.77,2.97,1.21,6.02-2.42,2.38-2.16-2.16-4.95-4.66-7.56-6.46-4.62-3.41-10.09-7.67-13.87-4.77-2.86,2.13-3.16,7.08-.88,9.83,2.05,2.68,5.32,1.94,8.14,1.8,3.93-.66,8.26,2.49,11.08,6.6,11.45,13.8,1.91,31.63-8.84,42.19-8.4,9.54-12.95,3.08-16.18-8.48-2.24-5.8,2.57-21.72-7.08-20.03-7.7,5.1,1.8,13.8,4.33,19.52,1.54,4.11,5.36,12.11,4.66,13.65-.29.77-1.47.59-3.08-.44-3.49-2.2-6.9-6.16-9.03-10.16-3.08-5.54-4.77-11.96-5.43-18.38-1.14-9.21,1.5-18.34-2.05-26.75-2.46-5.98-6.46-11.56-10.24-16.55-1.47-1.8-2.79-2.9-3.78-2.71-2.79,1.54-2.31,7.52-2.97,11.08-.51,5.8-.95,11.7.18,17.39,1.72,8.59,8.03,16.44,10.09,25.54,2.27,8.88,2.2,19.67-1.87,27.81-.84,1.61-1.61,2.42-2.09,2.13-.73-.62-.77-2.2-.84-3.49,0-6.09-.59-12.58.15-18.49.62-4.62,1.06-12.77-4.77-12.8-2.79.07-4.73,3.85-3.71,7.37,1.39,4.55,5.14,7.92,6.05,13.02.88,5.36,1.5,16-2.46,18.45-9.98,3.19-25.57-8.11-31.15-17.39-4.51-5.69-1.98-14.16-5.47-20.03-2.49-3.74-7.56-1.72-7.78,2.9-.4,3.56,1.65,6.6,4.04,8.84l.44.44.07.11Z" style="fill: #1394bc;"/>
        <path d="M441.97,671.77c12.11,18.56,36.69,86,45.9,105.85.73,1.61,1.83,1.65,4.33.66,47.62-18.71,111.72-16.99,160.4-2.13,7.12,2.71,9.5-6.68,11.78-11.92,5.39-13.39,22.82-54.63,31.22-75.36,2.02-5.5,5.54-10.09,8.99-14.6,5.69-7.96,9.47-35.99-6.02-14.97-5.17,7.23-1.8,17.1-6.13,24.73-15.92,31.11-50.78,54.89-82.29,38.01-13.43-7.26-22.75-19.81-29.79-33.97-1.8-3.71-3.49-7.3-5.17-7.12-1.47-.04-3.01,2.6-4.66,5.87-3.67,7.12-7.85,13.61-12.62,19.26-18.05,22.93-50.41,29.64-73.6,11.52-11.41-8.37-23.41-20.69-30.49-34.78-2.71-6.02-.62-13.21-3.3-19.34-1.98-4.77-5.76-9.1-9.36-12.03-.73-.48-1.32-.81-2.02-.4-2.35,2.6.22,15.37,2.53,20.14l.29.62v-.04Z" style="fill: #1394bc;"/>
      </g>
      <g>
        <path d="M433.31,1237.15c-.01,1.65-.02,3.03-.03,4.32,0,1.29-.02,2.48-.02,3.77,0,1.29-.02,2.66-.03,4.32,1.75.24,3.21.44,4.57.62s2.63.35,3.99.52c1.36.18,2.83.36,4.58.58-.02,1.78-.03,3.11-.05,4.44-.01,1.33-.03,2.67-.05,4.44-1.75-.3-3.21-.56-4.57-.8-1.36-.24-2.62-.47-3.98-.72-1.36-.25-2.81-.52-4.56-.86-.01,1.85-.02,3.51-.03,5.06s-.02,2.99-.03,4.4c0,1.4-.02,2.77-.03,4.17,0,1.4-.02,2.84-.03,4.39s-.02,3.21-.03,5.06c-1.44-.5-2.63-.92-3.74-1.32-1.11-.4-2.15-.77-3.26-1.18-1.11-.41-2.3-.85-3.73-1.38v-48.42c1.92,0,3.67,0,5.32,0,1.65,0,3.19,0,4.69,0,1.49,0,2.93,0,4.37,0,1.44,0,2.88,0,4.37,0s3.03,0,4.69,0c1.65,0,3.41,0,5.32,0-.02,1.9-.04,3.33-.06,4.75-.02,1.43-.03,2.85-.06,4.75-1.76-.09-3.31-.16-4.74-.24-1.43-.07-2.76-.14-4.08-.21-1.32-.07-2.64-.14-4.08-.22-1.43-.08-2.97-.16-4.74-.26Z"/>
        <path d="M479.56,1294.23c-1.93-.43-3.54-.8-5.04-1.16-1.5-.35-2.89-.69-4.38-1.06-1.5-.37-3.1-.77-5.02-1.28-1.36-.35-2.61-.93-3.72-1.66-1.11-.74-2.08-1.64-2.88-2.65-.8-1.02-1.42-2.15-1.85-3.36-.42-1.21-.64-2.5-.62-3.84.02-1.86.05-3.62.07-5.3.02-1.68.04-3.28.06-4.82.02-1.54.04-3.02.06-4.47s.04-2.86.06-4.26c.02-1.4.04-2.79.05-4.2.02-1.4.04-2.82.06-4.26.02-1.45.04-2.93.06-4.47.02-1.54.04-3.14.06-4.82s.04-3.44.07-5.3c.02-1.76.47-3.32,1.25-4.63.78-1.31,1.91-2.38,3.29-3.13,1.39-.74,3.03-1.17,4.86-1.17h9.46c1.5,0,3.12,0,5.05,0,1.39,0,2.67.25,3.81.73,1.13.48,2.12,1.18,2.93,2.07.81.89,1.45,1.97,1.87,3.21.43,1.23.65,2.62.62,4.11-.03,1.9-.05,3.7-.08,5.43-.02,1.73-.05,3.38-.07,4.98s-.04,3.13-.07,4.64c-.02,1.5-.04,2.96-.06,4.41-.02,1.44-.04,2.87-.06,4.29-.02,1.42-.04,2.85-.06,4.29-.02,1.44-.04,2.91-.06,4.41-.02,1.5-.04,3.04-.07,4.64s-.05,3.25-.07,4.98c-.02,1.73-.05,3.53-.08,5.43-.03,2.02-.48,3.76-1.27,5.12-.79,1.36-1.93,2.35-3.33,2.89-1.4.54-3.07.63-4.92.22ZM478.33,1239.27c-1.38-.05-2.53-.1-3.6-.14-1.07-.04-2.07-.08-3.14-.13-1.07-.04-2.22-.09-3.6-.15-.27-.01-.35.07-.36.34-.03,1.83-.05,3.56-.07,5.21-.02,1.65-.05,3.22-.07,4.74-.02,1.51-.04,2.97-.06,4.4-.02,1.42-.04,2.81-.06,4.19-.02,1.38-.04,2.75-.06,4.13s-.04,2.77-.06,4.19c-.02,1.42-.04,2.88-.06,4.4-.02,1.51-.04,3.09-.07,4.74-.02,1.65-.05,3.38-.07,5.21,0,.18.08.38.35.43,1.37.29,2.52.53,3.58.75,1.07.22,2.06.42,3.13.63,1.07.21,2.22.44,3.59.7.18.03.35-.12.36-.3.03-1.91.05-3.71.08-5.43.03-1.72.05-3.36.07-4.94s.05-3.1.07-4.58c.02-1.48.04-2.93.06-4.37s.04-2.86.06-4.3.04-2.89.06-4.37.04-3.01.07-4.58.05-3.22.07-4.94.05-3.52.08-5.43c0-.28-.17-.38-.35-.39Z"/>
        <path d="M520.82,1301.34c-1.96-.24-3.58-.45-5.1-.65-1.52-.2-2.93-.4-4.45-.62-1.52-.22-3.14-.46-5.09-.77-1.38-.22-2.65-.69-3.78-1.38s-2.11-1.58-2.92-2.65c-.81-1.06-1.45-2.28-1.87-3.63s-.65-2.81-.63-4.36c.03-1.94.05-3.79.07-5.55.02-1.77.05-3.46.07-5.09.02-1.63.04-3.2.06-4.74.02-1.53.04-3.03.06-4.5.02-1.48.04-2.93.06-4.39s.04-2.91.06-4.39c.02-1.48.04-2.97.06-4.5s.04-3.11.06-4.74.04-3.32.07-5.09c.02-1.77.05-3.61.07-5.55.02-1.53.28-2.93.74-4.18.46-1.25,1.12-2.35,1.95-3.26s1.83-1.63,2.96-2.13c1.13-.5,2.4-.77,3.78-.77,1.93,0,3.55,0,5.05,0,1.5,0,2.9,0,4.41,0,1.5,0,3.12,0,5.05,0,1.39,0,2.67.28,3.81.8,1.14.52,2.13,1.29,2.94,2.26.82.97,1.46,2.15,1.89,3.49.43,1.34.66,2.85.64,4.48-.02,1.88-.03,3.68-.05,5.41-.01,1.73-.03,3.39-.04,4.99-.01,1.6-.03,3.15-.04,4.66-.01,1.51-.03,2.98-.04,4.43s-.02,2.87-.04,4.29-.02,2.83-.04,4.24c-.01,1.42-.02,2.84-.04,4.29-.01,1.45-.03,2.92-.04,4.43s-.03,3.06-.04,4.66c-.01,1.6-.03,3.26-.04,4.99-.01,1.73-.03,3.53-.05,5.41-.01,1.65-.27,3.16-.73,4.47-.46,1.31-1.13,2.43-1.97,3.32-.84.89-1.86,1.55-3.02,1.95-1.16.39-2.46.52-3.87.35ZM519.4,1240.48c-1.38-.03-2.53-.06-3.61-.08s-2.07-.05-3.15-.07c-1.08-.03-2.23-.05-3.61-.09-.27,0-.36.09-.36.4-.02,1.87-.04,3.64-.06,5.34-.02,1.7-.04,3.33-.06,4.89s-.04,3.08-.06,4.56c-.02,1.48-.04,2.91-.05,4.33-.02,1.42-.03,2.82-.05,4.22s-.03,2.8-.05,4.22-.03,2.86-.05,4.33-.04,2.99-.06,4.56c-.02,1.57-.04,3.19-.06,4.89-.02,1.7-.04,3.47-.06,5.34,0,.2.09.42.35.45,1.39.18,2.55.32,3.63.45,1.08.13,2.09.25,3.17.37s2.24.25,3.63.4c.18.02.36-.17.36-.37.02-1.91.04-3.72.06-5.46.02-1.74.04-3.4.05-5,.02-1.6.03-3.15.05-4.66.02-1.51.03-2.98.05-4.43.02-1.45.03-2.88.05-4.31.02-1.43.03-2.86.05-4.31.02-1.45.03-2.92.05-4.43.02-1.51.03-3.05.05-4.66.02-1.6.03-3.26.05-5,.02-1.74.04-3.55.06-5.46,0-.31-.17-.42-.35-.42Z"/>
        <path d="M558.68,1241c0,1.94-.01,3.8-.02,5.6,0,1.8-.01,3.54-.02,5.22,0,1.69,0,3.32-.01,4.92,0,1.59,0,3.15-.01,4.67s0,3.02-.01,4.5,0,2.94-.01,4.4,0,2.91-.01,4.36c0,1.46,0,2.92-.01,4.4,0,1.48,0,2.98-.01,4.5,0,1.53,0,3.08-.01,4.67,0,1.59,0,3.23-.01,4.91s0,3.42-.02,5.22c0,1.8-.01,3.66-.02,5.6-1.5-.05-2.75-.09-3.91-.14-1.17-.05-2.25-.1-3.41-.15-1.17-.06-2.41-.12-3.91-.21.01-1.93.02-3.78.03-5.57,0-1.79.02-3.51.03-5.19,0-1.67.02-3.3.03-4.88s.02-3.13.02-4.64c0-1.52.02-3,.02-4.47,0-1.47.02-2.92.02-4.37,0-1.45.02-2.89.02-4.34,0-1.45.02-2.9.02-4.37,0-1.47.02-2.96.02-4.47,0-1.52.02-3.06.02-4.64s.02-3.21.03-4.88c0-1.67.02-3.4.03-5.19,0-1.79.02-3.64.03-5.57-1.48-.01-2.71-.03-3.86-.04-1.15-.01-2.22-.03-3.37-.04-1.15-.01-2.38-.03-3.86-.05.01-1.62.02-2.97.03-4.24,0-1.26.02-2.43.03-3.7s.02-2.61.03-4.24c1.9,0,3.66,0,5.32,0s3.23,0,4.74,0,2.96,0,4.39,0c1.43,0,2.84,0,4.28,0,1.43,0,2.88,0,4.39,0s3.08,0,4.74,0,3.42,0,5.32,0c0,1.66,0,3.04,0,4.32,0,1.29,0,2.48,0,3.77,0,1.29,0,2.67,0,4.32-1.48,0-2.71,0-3.86,0-1.15,0-2.22,0-3.37-.01s-2.38,0-3.86-.02Z"/>
        <path d="M599.76,1303.3c-1.93.13-3.67.23-5.3.31-1.62.09-3.13.16-4.6.22-1.47.06-2.9.12-4.37.16-1.47.05-2.98.09-4.61.12-1.63.03-3.37.06-5.3.08,0-1.89,0-3.72,0-5.5,0-1.78,0-3.51,0-5.19s0-3.32,0-4.92c0-1.6,0-3.17,0-4.7,0-1.54,0-3.04,0-4.52,0-1.48,0-2.95,0-4.39,0-1.45,0-2.88,0-4.3,0-1.42,0-2.84,0-4.26,0-1.42,0-2.83,0-4.26,0-1.42,0-2.86,0-4.3,0-1.45,0-2.91,0-4.39,0-1.48,0-2.99,0-4.52,0-1.54,0-3.1,0-4.7,0-1.6,0-3.24,0-4.92s0-3.41,0-5.19c0-1.78,0-3.61,0-5.5,1.9,0,3.62,0,5.22,0,1.6,0,3.08,0,4.53,0,1.45,0,2.86,0,4.3,0,1.45,0,2.93,0,4.53,0,1.6,0,3.31,0,5.22,0,1.39,0,2.68.29,3.82.82,1.14.53,2.15,1.3,2.98,2.28.83.98,1.49,2.16,1.94,3.5.45,1.34.7,2.85.72,4.49.01,1.57.02,2.95.03,4.23s.02,2.46.03,3.64c0,1.18.02,2.36.03,3.64.01,1.28.02,2.66.03,4.23.01,1.51-.16,2.85-.49,4-.33,1.15-.83,2.12-1.49,2.91-.65.79-1.46,1.4-2.41,1.82,0,.08,0,.13,0,.21.95.32,1.77.85,2.43,1.59s1.18,1.68,1.53,2.81.54,2.46.55,3.98c.01,1.86.03,3.49.04,5s.02,2.91.03,4.3c.01,1.39.02,2.79.03,4.3.01,1.51.02,3.14.04,5,.01,1.66-.22,3.21-.65,4.61-.44,1.4-1.09,2.64-1.92,3.7s-1.83,1.91-2.99,2.53c-1.15.62-2.45,1-3.87,1.09ZM597.81,1258.22c0-1.69-.02-3.17-.02-4.54,0-1.37-.01-2.64-.02-3.9,0-1.27-.01-2.53-.02-3.9,0-1.37-.02-2.85-.02-4.54,0-.32-.18-.43-.36-.42-1.43.01-2.62.03-3.74.04-1.11,0-2.15.02-3.26.03-1.11,0-2.31.02-3.74.02,0,1.79.01,3.35.02,4.8,0,1.45,0,2.79.01,4.13,0,1.34,0,2.68.01,4.13,0,1.45,0,3.01.02,4.8,1.44-.02,2.63-.04,3.75-.06s2.15-.04,3.27-.06c1.12-.02,2.31-.05,3.75-.09.18,0,.36-.11.35-.44ZM597.99,1290.7c-.01-1.99-.02-3.73-.03-5.34,0-1.61-.02-3.11-.03-4.6,0-1.49-.02-2.98-.03-4.6,0-1.61-.02-3.35-.03-5.34,0-.21-.18-.42-.36-.42-1.44.05-2.64.09-3.76.12-1.12.03-2.16.06-3.28.09-1.12.03-2.32.06-3.76.08,0,1.67.01,3.17.01,4.58s0,2.71.01,3.98c0,1.27,0,2.51.01,3.78,0,1.27,0,2.57.01,3.98,0,1.4,0,2.91.01,4.58,1.45-.04,2.65-.08,3.78-.12s2.17-.08,3.29-.13,2.33-.1,3.77-.18c.18,0,.36-.23.36-.45Z"/>
        <path d="M641.06,1289.05c-1.8.26-3.31.46-4.71.65s-2.71.35-4.11.53c-1.4.17-2.91.36-4.72.56-.21,1.33-.39,2.44-.55,3.47-.17,1.03-.32,2-.48,3.03s-.34,2.15-.55,3.48c-1.56.2-2.86.36-4.08.5s-2.34.27-3.56.41c-1.22.13-2.52.27-4.08.43.34-2,.67-3.92.99-5.79.32-1.87.63-3.67.93-5.43.3-1.76.59-3.46.88-5.13.28-1.66.56-3.29.83-4.88s.54-3.15.8-4.68c.26-1.53.52-3.05.78-4.54.26-1.5.51-2.98.76-4.45.25-1.47.51-2.94.76-4.42.25-1.47.51-2.95.76-4.43.26-1.49.51-2.98.77-4.5.26-1.52.53-3.05.79-4.62.27-1.56.54-3.16.83-4.78.28-1.63.57-3.29.86-5,.3-1.71.6-3.46.91-5.27.31-1.81.63-3.66.97-5.58,1.78,0,3.27,0,4.65,0,1.39,0,2.67,0,4.06,0s2.87,0,4.65,0c.4,2,.8,3.92,1.17,5.78.38,1.86.74,3.65,1.1,5.38.36,1.74.7,3.42,1.04,5.05.34,1.64.67,3.23.99,4.79s.64,3.08.95,4.59.62,2.98.93,4.45c.31,1.46.61,2.92.92,4.36.3,1.45.61,2.89.92,4.34.31,1.45.62,2.91.93,4.38.31,1.47.63,2.96.95,4.48.32,1.51.65,3.05.99,4.63.34,1.57.69,3.18,1.04,4.83.36,1.65.72,3.34,1.1,5.09.38,1.74.77,3.54,1.18,5.39-1.55.31-2.84.55-4.04.78-1.21.23-2.33.43-3.53.65s-2.5.44-4.06.71c-.35-1.84-.6-3.22-.86-4.6-.26-1.38-.52-2.77-.86-4.62ZM638.96,1278.28c-.32-1.75-.62-3.36-.9-4.88-.28-1.51-.54-2.93-.79-4.31s-.5-2.7-.74-4.03c-.24-1.33-.49-2.66-.74-4.04-.25-1.38-.51-2.82-.79-4.35-.28-1.53-.58-3.17-.9-4.96-.12-1.01-.18-1.51-.3-2.52-.09,1.02-.14,1.53-.24,2.55-.29,1.82-.55,3.49-.79,5.07-.25,1.57-.48,3.05-.7,4.47-.22,1.43-.44,2.8-.65,4.18s-.43,2.76-.65,4.19c-.22,1.43-.46,2.92-.7,4.51-.25,1.59-.51,3.29-.8,5.14,1.94-.19,3.4-.34,4.85-.49,1.46-.15,2.91-.31,4.85-.53Z"/>
        <path d="M659.37,1295.12c-.03-1.9-.05-3.73-.08-5.51-.03-1.77-.05-3.49-.07-5.16s-.05-3.29-.07-4.87c-.02-1.58-.04-3.12-.07-4.64-.02-1.51-.04-3-.06-4.46s-.04-2.91-.06-4.34-.04-2.86-.06-4.29c-.02-1.43-.04-2.85-.06-4.29s-.04-2.88-.06-4.34c-.02-1.46-.04-2.95-.06-4.46-.02-1.51-.04-3.05-.07-4.64-.02-1.58-.05-3.2-.07-4.87-.02-1.67-.05-3.38-.07-5.16-.03-1.77-.05-3.61-.08-5.51,1.47,0,2.7,0,3.85,0,1.15,0,2.21,0,3.36,0,1.15,0,2.38,0,3.85,0,.03,1.95.06,3.8.08,5.59.03,1.79.05,3.5.08,5.16.02,1.66.05,3.26.07,4.82s.04,3.08.07,4.58c.02,1.5.04,2.97.06,4.43.02,1.46.04,2.92.06,4.38.02,1.46.04,2.94.06,4.43.02,1.5.04,3.02.07,4.58.02,1.56.05,3.16.07,4.82.02,1.66.05,3.37.07,5.16.03,1.79.05,3.64.08,5.59,1.76-.35,3.3-.67,4.73-.97,1.43-.3,2.75-.58,4.07-.87,1.32-.29,2.63-.58,4.06-.9s2.96-.68,4.71-1.09c.03,1.95.04,3.42.06,4.89s.04,2.93.06,4.89c-1.89.54-3.63,1.02-5.26,1.46-1.63.44-3.16.84-4.64,1.23-1.48.38-2.91.74-4.34,1.09-1.43.35-2.86.7-4.34,1.05-1.48.35-3.02.7-4.67,1.07-1.65.37-3.4.75-5.32,1.15Z"/>
        <path d="M693.52,1286.44c-.02-1.93-.05-3.78-.07-5.56s-.04-3.5-.06-5.16c-.02-1.66-.04-3.27-.06-4.84-.02-1.57-.04-3.09-.06-4.59s-.04-2.97-.05-4.43c-.02-1.46-.04-2.91-.05-4.35-.02-1.45-.04-2.89-.05-4.35-.02-1.46-.04-2.93-.05-4.43s-.04-3.03-.06-4.59c-.02-1.57-.04-3.17-.06-4.84-.02-1.66-.04-3.38-.06-5.16-.02-1.78-.04-3.63-.07-5.56,1.47,0,2.7,0,3.85,0,1.15,0,2.21,0,3.36,0s2.38,0,3.85,0c.02,1.82.03,3.55.05,5.21.01,1.66.03,3.24.04,4.77.01,1.53.03,3,.04,4.44.01,1.44.03,2.84.04,4.22s.02,2.75.04,4.12.02,2.73.04,4.12c.01,1.38.02,2.79.04,4.22.01,1.44.03,2.91.04,4.44.01,1.53.03,3.11.04,4.77.01,1.66.03,3.39.05,5.21,1.74-.48,3.25-.9,4.66-1.3,1.41-.4,2.71-.78,4-1.16,1.3-.38,2.59-.77,3.99-1.19,1.4-.42,2.91-.89,4.63-1.43v7.95c-1.85.7-3.56,1.33-5.16,1.91s-3.1,1.11-4.55,1.62c-1.45.51-2.85.99-4.25,1.46s-2.81.94-4.27,1.41c-1.46.47-2.97.96-4.59,1.47-1.62.51-3.35,1.04-5.23,1.6Z"/>
      </g>
      <g>
        <path d="M528.21,1184.55c-127.55-30.04-188.15-181.94-116.54-291.35,100.22-153.16,336.68-96.22,354.12,88.37,12.23,128.86-112.03,235-237.58,202.98Z" style="fill: #fff;"/>
        <path d="M765.79,981.57c-17.44-184.58-253.9-241.53-354.12-88.37-71.62,109.41-11.01,261.31,116.54,291.35,125.55,32.02,249.81-74.12,237.58-202.98ZM674.79,849.32c-9.89,4.96-19.73,11.42-29.79,18.99l-74.28-18.15c-5.52-11.38-11.46-21.86-17.9-30.8,41.18-5.33,87.95,6.1,121.96,29.96ZM586.7,974.09l67.03-17.32c17.92,8.61,33.39,19.91,45.84,33.82l-17.07,70.14c-19,12.8-38.96,21.41-60.11,22.98l-51.24-45.83,15.54-63.79ZM558.02,1034.67s-66.94,17.42-66.94,17.42c-17.2-10.68-31.17-25.89-41.58-45.29l18.06-74.45c16.94-5.97,35.16-8.68,54.29-7.97l51.7,46.5c0,.05-15.53,63.78-15.53,63.78ZM537.63,821.9c7.61,9.52,14.38,20.54,20.53,33.46,0,.01-37.2,55.4-37.22,55.42-20.44-.66-40,2.49-58.21,8.77l-36.27-24.22c26.33-37.88,66.36-64.15,111.16-73.43ZM396.1,1019.75c.11-.01,42.38-4.78,42.46-4.79,11.38,20.58,26.55,36.82,45.11,48.45l7.65,66.81c-7.02,5.35-13.84,9.93-20.57,13.7-41.08-29.01-68.38-74.24-74.65-124.16ZM483.5,1152.09c5.33-3.37,10.93-7.2,16.5-11.5l74.29,18.02c2.9,6.23,6.07,12.14,9.31,17.65-33.75,2.08-71.02-6.81-100.1-24.17ZM598.61,1174.75c-4.29-6.64-8.22-13.71-11.85-21.41l37.61-56.17c21.49-2.2,42.27-9.64,61.59-22.8.04.01,35.69,24.06,35.72,24.09-28.39,41.51-73.34,69.25-123.07,76.29ZM708.28,980.03c-13.1-14.04-28.88-25.84-47.13-34.79l-7.52-66.45c11.33-8.61,22.35-15.26,33.44-20.22,35.43,28.95,58.75,70.79,64.5,116.55l-43.29,4.91Z"/>
      </g>
    </g>
  </g>
</svg>